<?xml version="1.0" encoding="UTF-8"?><svg id="Capa_1" xmlns="http://www.w3.org/2000/svg" viewBox="0 0 40 24.02"><defs><style>.cls-1{fill:#253887;}</style></defs><path class="cls-1" d="M8.92,16.06c.15-.04,.32-.04,.49-.04-.04-2.89-.64-6.1-.02-8.94,.49-2.24,4.74-1.29,6.49-1.2,2.26,.12,4.48,.56,6.74,.67,.65,.03,1.88-.23,2.28,.43,.2,.33,.32,.68,.4,1.04,.04-.01,.08-.02,.13-.02,1.12,0,2.79-.24,3.71,.46,.74,.56,.55,1.69,.31,2.51,2.77-.2,1.87,3.86,1.45,5.29,.08,0,.15,.01,.23,.03,.36,.05,.36,.56,0,.61-.44,.07-.9,.05-1.34,.03-.29-.01-.64-.03-.82-.22,0,.39-.22,.77-.73,.97-.71,.28-1.62,.07-1.97-.55-.02-.04-.04-.09-.05-.13-1.4,.28-2.9,.11-4.34,.07,.03,.28-.06,.58-.25,.81-.53,.63-1.52,.73-2.2,.25-.38-.27-.58-.74-.56-1.17-1.04,.27-2.53,.32-3.52,.05-.02,0-.04-.02-.07-.02,0,.72-.95,1.21-1.71,1.12-.65-.08-1.09-.68-1.15-1.19,0-.06,0-.12,0-.18-.54,.15-1.11,.21-1.68,.22-.55,0-1.44,.05-1.92-.22-.3-.17-.27-.58,.1-.66Zm16.41-5.87c-.02,.17-.03,.34-.05,.51,.34-.03,.71,.09,1.04,.12,.43,.04,.86,0,1.29,0-.02-.36-.04-.71-.12-1.06-.7,.03-1.43-.04-2.12-.11-.01,.19-.03,.37-.04,.56Zm4.88,1.6c-.04,.72-.09,1.43-.12,2.15,.18,.08,.37,.12,.58,.14,.07-.93,.01-1.86-.47-2.29Zm-3.17,4.99c.15,.25,.5,.27,.77,.15,.47-.2,.13-.81-.41-.72-.04,0-.07,0-.1,0,0,0,0,0,0,0-.28,.1-.4,.33-.26,.56Zm-.91-.25c.04-.45,.41-.83,.95-1.01,.07-.02,.14-.03,.2-.02,.83-.24,1.47,.27,1.64,.87,.03-.04,.07-.08,.11-.1,.2-.13,.62-.05,.86-.05,.16,0,.32,0,.48,0,.06-.38,.2-1.05,.28-1.77-.32,0-.64-.04-.95-.1-.14-.03-.22-.14-.23-.26-.03-.85-.06-1.71,.07-2.55-.06,0-.11,0-.17,0-.17,.02-.27-.06-.31-.17-.04-.02-.06-.05-.08-.09-.09-.32-.14-.65-.13-.98,0-.35,.13-1.03-.16-1.31-.64-.62-2.4-.35-3.26-.34-.01,0-.03,0-.04,0,0,.11,0,.22,.01,.34,0,0,.02,0,.03,0,.82,.1,1.65,.12,2.46,.24,.11,.02,.16,.07,.19,.13,.03,.03,.06,.07,.07,.13,.09,.47,.1,.93,.07,1.41,0,.02-.01,.04-.02,.07,.07,.14,.02,.32-.19,.37-.58,.14-1.24,.17-1.83,.18-.29,0-.67-.02-.94-.14-.16,1.68-.32,3.35-.41,5.04,.44,.03,.88,.07,1.32,.12Zm-6.18,.92c.2,.2,.5,.24,.78,.05,.29-.19,.22-.54,.04-.82-.07,.02-.15,.02-.23,0-.19-.04-.37-.08-.57-.04-.1,.02-.17,.09-.19,.14-.09,.21-.01,.48,.16,.66Zm-6.25-.16c.28,.09,.65-.17,.65-.42,0-.18-.18-.4-.38-.58-.04,.02-.08,.04-.13,.05-.31,.08-.51,.21-.49,.5,0,.17,.17,.4,.36,.46Zm-3.54-8.4c.08,2.4,.15,4.81,.16,7.22,.08,0,.16,.02,.24,.02,.68,.04,1.34,.08,2.01,.01,.02,0,.04,0,.06,0,.21-.27,.55-.48,.95-.57,.11-.03,.21-.02,.3,.01,.53,.08,.98,.36,1.22,.75,.22-.19,.77-.09,1.08-.06,.94,.07,1.88,0,2.82-.01,.04,0,.08,0,.11,.02,.37-.42,1.06-.48,1.66-.35,.15,.03,.24,.11,.28,.2,.12,.05,.24,.11,.34,.18,.05-.02,.12-.03,.19-.03,.85,0,1.72,.03,2.58,.08-.21-2.42,.31-4.83,.42-7.24,.08-1.82-1.04-1.82-2.72-1.9-1.75-.08-3.49-.37-5.22-.54-1.17-.11-2.35-.1-3.52-.18-.5-.04-1-.05-1.5-.05-1.71,0-1.5,1.57-1.47,2.45Z"/><path class="cls-1" d="M25.82,12.21c.2,.06,.4,.12,.6,.15,.33,.06,.22,.44-.07,.47-.1,0-.19,0-.29,0-.07,0-.17-.04-.24-.03-.23,.04-.45-.09-.45-.29,0-.19,.23-.36,.45-.29Z"/><path class="cls-1" d="M22.83,8.44c.05-.26,.56-.26,.61,0,.37,2.03,.27,4.33,.06,6.37-.03,.29-.5,.29-.53,0-.22-2.04-.5-4.34-.14-6.37Z"/><path class="cls-1" d="M20.83,8.69c.02-.33,.55-.39,.66-.08,.7,1.92-.04,4.41-.22,6.38-.03,.34-.6,.34-.62,0-.13-2.06,.08-4.24,.18-6.3Z"/><path class="cls-1" d="M18.73,8.34c.56,2.1,.22,4.35,.03,6.48-.03,.32-.57,.32-.59,0-.13-2.1,.32-4.22-.17-6.3-.1-.4,.62-.58,.73-.17Z"/><path class="cls-1" d="M15.47,7.74c.21-.32,.69-.09,.64,.23-.4,2.37,.16,4.66-.05,7.02-.03,.32-.53,.31-.57,0-.17-1.36-.3-2.72-.4-4.09-.07-.98-.21-2.28,.39-3.16Z"/><path class="cls-1" d="M13.36,8.17c.05-.29,.63-.29,.67,0,.32,2.01,.18,4.28-.05,6.29-.04,.31-.53,.31-.56,0-.24-2.01-.37-4.28-.05-6.29Z"/><path class="cls-1" d="M12.11,7.95c.23-.2,.7,0,.57,.29-.95,2.15-.27,4.27-.49,6.49-.03,.28-.47,.28-.51,0-.18-1.32-.35-2.65-.37-3.98,0-.89,.02-2.11,.79-2.79Z"/></svg>