<?xml version="1.0" encoding="utf-8"?>
<!-- Generator: Adobe Illustrator 26.3.1, SVG Export Plug-In . SVG Version: 6.00 Build 0)  -->
<svg version="1.1" xmlns="http://www.w3.org/2000/svg" xmlns:xlink="http://www.w3.org/1999/xlink" x="0px" y="0px"
	 viewBox="0 0 50 50" style="enable-background:new 0 0 50 50;" xml:space="preserve">
<style type="text/css">
	.st0{fill:none;}
	.st1{fill:#FFFFFF;}
	.st2{fill:#1D262D;}
</style>
<g id="BACKGROUND">
</g>
<g id="OBJECTS">
	<path d="M41.87,12.46c-0.13-0.16-0.33-0.24-0.53-0.21c-0.04,0-0.09,0.01-0.13,0.02L6.69,21.66c-0.25,0.07-0.43,0.3-0.44,0.56
		c-0.01,0.26,0.16,0.5,0.41,0.58l12.63,4.14l-1.13,9.04c-0.03,0.24,0.09,0.47,0.3,0.59c0.09,0.05,0.19,0.08,0.3,0.08
		c0.13,0,0.26-0.04,0.36-0.12l4.62-3.54l4.05,5.79c0.11,0.16,0.29,0.25,0.49,0.25c0.01,0,0.03,0,0.04,0
		c0.21-0.01,0.4-0.14,0.49-0.32l13.13-25.6C42.05,12.9,42.02,12.65,41.87,12.46L41.87,12.46z M37.74,14.45L19.86,25.87L8.92,22.29
		L37.74,14.45z M19.52,34.72l0.82-6.58l2.71,3.87L19.52,34.72z M28.2,37.28L20.79,26.7l19.11-12.21L28.2,37.28z M28.2,37.28"/>
</g>
<g id="DESIGNED_BY_FREEPIK">
</g>
</svg>
