<?xml version="1.0" encoding="utf-8"?>
<!-- Generator: Adobe Illustrator 26.3.1, SVG Export Plug-In . SVG Version: 6.00 Build 0)  -->
<svg version="1.1" xmlns="http://www.w3.org/2000/svg" xmlns:xlink="http://www.w3.org/1999/xlink" x="0px" y="0px"
	 viewBox="0 0 50 50" style="enable-background:new 0 0 50 50;" xml:space="preserve">
<style type="text/css">
	.st0{fill:none;}
	.st1{fill:#FFFFFF;}
	.st2{fill:#1D262D;}
</style>
<g id="BACKGROUND">
</g>
<g id="OBJECTS">
	<g>
		<path d="M33.82,3.88H16.46c-1.67,0-3.03,1.36-3.03,3.03V42.2c0,1.67,1.36,3.03,3.03,3.03h17.36c1.68,0,3.03-1.36,3.03-3.03V6.92
			C36.85,5.25,35.49,3.88,33.82,3.88L33.82,3.88z M14.8,9.4h20.67v26.19H14.8V9.4z M16.46,5.26h17.36c0.91,0,1.66,0.74,1.66,1.65
			v1.1H14.8v-1.1C14.8,6.01,15.55,5.26,16.46,5.26L16.46,5.26z M33.82,43.85H16.46c-0.91,0-1.65-0.74-1.65-1.65v-5.24h20.67v5.24
			C35.48,43.11,34.73,43.85,33.82,43.85L33.82,43.85z M33.82,43.85"/>
		<path d="M25.14,37.65c-1.52,0-2.76,1.24-2.76,2.76c0,1.52,1.24,2.76,2.76,2.76c1.52,0,2.76-1.24,2.76-2.76
			C27.9,38.89,26.66,37.65,25.14,37.65L25.14,37.65z M25.14,41.78c-0.76,0-1.38-0.62-1.38-1.38c0-0.76,0.62-1.38,1.38-1.38
			c0.76,0,1.38,0.62,1.38,1.38C26.52,41.17,25.9,41.78,25.14,41.78L25.14,41.78z M25.14,41.78"/>
		<path d="M22.38,7.33h2.76c0.38,0,0.69-0.31,0.69-0.69c0-0.38-0.31-0.69-0.69-0.69h-2.76c-0.38,0-0.69,0.31-0.69,0.69
			C21.69,7.02,22,7.33,22.38,7.33L22.38,7.33z M22.38,7.33"/>
		<path d="M27.21,7.33h0.69c0.38,0,0.69-0.31,0.69-0.69c0-0.38-0.31-0.69-0.69-0.69h-0.69c-0.38,0-0.69,0.31-0.69,0.69
			C26.52,7.02,26.83,7.33,27.21,7.33L27.21,7.33z M27.21,7.33"/>
		<path d="M26.49,11.48h-2.7c-0.77,0-1.41,0.63-1.41,1.4v2.71c0,0.77,0.63,1.4,1.41,1.4h2.7c0.78,0,1.41-0.63,1.41-1.4v-2.71
			C27.9,12.11,27.27,11.48,26.49,11.48L26.49,11.48z M26.52,15.59c0,0.01-0.01,0.02-0.03,0.02l-2.73-0.02l0.03-2.73l2.73,0.03V15.59
			z M26.52,15.59"/>
		<path d="M20.29,11.48h-2.7c-0.78,0-1.41,0.63-1.41,1.4v2.71c0,0.77,0.63,1.4,1.41,1.4h2.7c0.77,0,1.41-0.63,1.41-1.4v-2.71
			C21.69,12.11,21.06,11.48,20.29,11.48L20.29,11.48z M20.31,15.59c0,0.01-0.01,0.02-0.03,0.02l-2.73-0.02l0.03-2.73l2.73,0.03
			V15.59z M20.31,15.59"/>
		<path d="M32.69,11.48h-2.71c-0.77,0-1.4,0.63-1.4,1.4v2.71c0,0.77,0.63,1.4,1.4,1.4h2.71c0.77,0,1.4-0.63,1.4-1.4v-2.71
			C34.1,12.11,33.47,11.48,32.69,11.48L32.69,11.48z M32.72,15.59c0,0.01-0.01,0.02-0.02,0.02l-2.73-0.02l0.03-2.73l2.73,0.03V15.59
			z M32.72,15.59"/>
		<path d="M26.49,17.67h-2.7c-0.77,0-1.41,0.63-1.41,1.4v2.71c0,0.77,0.63,1.4,1.41,1.4h2.7c0.78,0,1.41-0.63,1.41-1.4v-2.71
			C27.9,18.3,27.27,17.67,26.49,17.67L26.49,17.67z M26.52,21.78c0,0.01-0.01,0.03-0.03,0.03l-2.73-0.03l0.03-2.73l2.73,0.02V21.78z
			 M26.52,21.78"/>
		<path d="M20.29,17.67h-2.7c-0.78,0-1.41,0.63-1.41,1.4v2.71c0,0.77,0.63,1.4,1.41,1.4h2.7c0.77,0,1.41-0.63,1.41-1.4v-2.71
			C21.69,18.3,21.06,17.67,20.29,17.67L20.29,17.67z M20.31,21.78c0,0.01-0.01,0.03-0.03,0.03l-2.73-0.03l0.03-2.73l2.73,0.02V21.78
			z M20.31,21.78"/>
		<path d="M32.69,17.67h-2.71c-0.77,0-1.4,0.63-1.4,1.4v2.71c0,0.77,0.63,1.4,1.4,1.4h2.71c0.77,0,1.4-0.63,1.4-1.4v-2.71
			C34.1,18.3,33.47,17.67,32.69,17.67L32.69,17.67z M32.72,21.78c0,0.01-0.01,0.03-0.02,0.03l-2.73-0.03l0.03-2.73l2.73,0.02V21.78z
			 M32.72,21.78"/>
		<path d="M26.49,23.87h-2.7c-0.77,0-1.41,0.63-1.41,1.41v2.7c0,0.77,0.63,1.41,1.41,1.41h2.7c0.78,0,1.41-0.63,1.41-1.41v-2.7
			C27.9,24.5,27.27,23.87,26.49,23.87L26.49,23.87z M26.52,27.98c0,0.01-0.01,0.03-0.03,0.03l-2.73-0.03l0.03-2.73l2.73,0.03V27.98z
			 M26.52,27.98"/>
		<path d="M20.29,23.87h-2.7c-0.78,0-1.41,0.63-1.41,1.41v2.7c0,0.77,0.63,1.41,1.41,1.41h2.7c0.77,0,1.41-0.63,1.41-1.41v-2.7
			C21.69,24.5,21.06,23.87,20.29,23.87L20.29,23.87z M20.31,27.98c0,0.01-0.01,0.03-0.03,0.03l-2.73-0.03l0.03-2.73l2.73,0.03V27.98
			z M20.31,27.98"/>
		<path d="M32.69,23.87h-2.71c-0.77,0-1.4,0.63-1.4,1.41v2.7c0,0.77,0.63,1.41,1.4,1.41h2.71c0.77,0,1.4-0.63,1.4-1.41v-2.7
			C34.1,24.5,33.47,23.87,32.69,23.87L32.69,23.87z M32.72,27.98c0,0.01-0.01,0.03-0.02,0.03l-2.73-0.03l0.03-2.73l2.73,0.03V27.98z
			 M32.72,27.98"/>
	</g>
</g>
<g id="DESIGNED_BY_FREEPIK">
</g>
</svg>
