<?xml version="1.0" encoding="UTF-8"?><svg id="Capa_1" xmlns="http://www.w3.org/2000/svg" viewBox="0 0 283.16 250.36"><defs><style>.cls-1,.cls-2{fill:#9cb0c3;}.cls-2{fill-rule:evenodd;}</style></defs><polygon class="cls-2" points="152.66 .03 197.94 .03 197.94 133.19 152.66 133.19 152.66 79.83 117.63 79.83 117.63 53.41 152.66 53.41 152.66 .03"/><polygon class="cls-2" points="37.14 191.2 37.14 228.65 44.01 228.65 44.01 246.37 0 246.37 0 228.65 6.86 228.65 6.86 191.2 0 191.2 0 173.49 44.01 173.49 44.01 191.2 37.14 191.2"/><polygon class="cls-2" points="111.73 191.2 111.73 250.36 108.58 250.36 108.58 191.2 104.87 191.2 104.87 246.07 74.59 246.07 74.59 191.2 52.88 191.2 52.88 173.49 124.9 173.49 124.9 191.2 111.76 191.2 111.73 191.2"/><rect class="cls-1" x="136.32" y="174.91" width="28.3" height="71.16"/><polygon class="cls-2" points="184.32 222.91 208.59 222.91 208.59 246.35 168.58 246.35 168.58 231.19 184.29 231.19 184.29 222.91 184.32 222.91"/><polygon class="cls-2" points="224.03 222.17 195.73 175.19 224.58 175.19 239.15 202.9 256.29 176.33 283.16 176.33 253.16 225.83 253.16 246.32 224.03 246.32 224.03 222.14 224.03 222.17"/><rect class="cls-1" x="64.24" width="45.28" height="133.16"/></svg>