<?xml version="1.0" encoding="UTF-8"?><svg id="Capa_1" xmlns="http://www.w3.org/2000/svg" viewBox="0 0 128 141"><defs><style>.cls-1{fill:#253786;}</style></defs><path class="cls-1" d="M88,53.09c-1.62-.95-5.15-.21-7.02-.28-2.91-.1-5.82-.22-8.7,.27-.03,0-.05,.02-.08,.02-.04-1-.11-1.98-.18-2.95-.04-.52-.42-1-.98-.98-.64,.02-2-.07-2.82,.3-.68-1.66-2.05-3-3.77-2.16-.07-.45-.14-.9-.23-1.33-.1-.47-.59-.66-1.01-.58-.03-.05-.05-.09-.1-.14-5.47-5.26-18.52-7.67-22.11,1.02-1.3,3.13-3.37,17.2,2.42,17.81,.09,.21,.26,.38,.53,.44,.29,.06,.6,.1,.89,.16-.15,.1-.28,.25-.3,.49-.37,4.34-2.69,14.67,2.97,16.65,3.15,1.1,6.01-2.04,6.81-4.68,.72-2.38,.59-4.96,.45-7.51,.49,.12,1.02,.15,1.5,.21,.65,.08,1.3,.17,1.95,.21,.52,.03,.92-.45,.94-.94,.03-.91-.17-1.84-.31-2.73-.05-.35-.1-.71-.17-1.06-.04-.19-.15-.35-.3-.47,1.64-.2,3.24-.46,4.76-.79,.59-.13,.74-.68,.58-1.13,.07-.08,.12-.17,.14-.28,.04-.17,.07-.34,.1-.51,1.16,.34,2.43,.42,3.62,.56,.55,.07,.96-.5,.99-.99,.01-.29,.03-.58,.05-.87,.72,.06,1.45,0,2.17,.02,.39,.02,.76-.28,.85-.65,.41-1.59,.57-3.27,.59-4.97,.2,.08,.42,.12,.67,.09,3.18-.45,6.47-.15,9.67-.07,1.72,.04,4.57,.55,5.74-1,.29-.39,.06-.99-.32-1.21Zm-40.42,26.68c-2.07-1.08-1.79-5.7-1.81-7.59-.02-2.33,.15-4.66,0-6.99,0-.15-.06-.26-.13-.35,2.26,.36,4.66,.49,7.08,.45-.6,2.38-.01,5.26,.02,7.63,.04,2.47-1.17,8.95-5.17,6.86Zm7.13-11.58c-.02-.39-.02-.77-.03-1.16,.2,.25,.43,.48,.67,.69,.15,.12,.34,.27,.55,.41-.4,0-.8,0-1.2,.06Zm1.58-1.09c-.54-.28-1.17-.68-1.4-1.28-.04-.1-.11-.17-.18-.21,0-.14,0-.27,.01-.41,.24-.01,.48-.04,.72-.06-.13,.12-.18,.3-.05,.5,.37,.56,.96,1.18,1.62,1.41,.02,.11,.04,.21,.05,.32-.26-.09-.54-.16-.77-.28Zm.53-1.24c-.26-.19-.5-.41-.67-.65-.03-.04-.07-.07-.11-.1,.32-.03,.63-.04,.95-.07-.13,.16-.22,.36-.2,.57,0,.09,.02,.17,.04,.26Zm5.61-3.55c-5.81-.12-11.54,.87-17.4,.58-4.63-3.5-4.06-9.77-2.44-14.95,2.88-9.22,13.94-4.32,19.34-1.13,.18,.11,.36,.13,.54,.12-.68,4.98,.45,10.34-.04,15.38Zm4.3-10.7c-.09-.06-.19-.11-.28-.17-.54-.37-1.02-.84-1.57-1.2-.03-.02-.07-.03-.1-.04-.02-.29-.04-.59-.06-.88,.02,0,.04,0,.06,0,.33,.31,.67,.62,1,.94,.27,.26,.54,.55,.84,.81,.04,.18,.08,.37,.11,.55Zm-.11,9.22c-.8,.07-1.6,.12-2.4,.15,.13-.74,.24-1.5,.33-2.27,.52,.44,1.06,.86,1.63,1.25,.13,.09,.29,.18,.46,.26,0,.2-.02,.41-.02,.61Zm.06-1.84c-.14-.07-.27-.14-.4-.22-.56-.32-1.09-.69-1.62-1.06,.05-.45,.07-.9,.11-1.35,.22,.19,.44,.37,.67,.53,.37,.27,.84,.56,1.32,.74-.03,.45-.05,.9-.08,1.36Zm.13-2.55c-.23-.09-.46-.18-.68-.29-.48-.26-.88-.59-1.29-.93,.02-.53,.04-1.06,.04-1.58,.52,.66,1.08,1.29,1.71,1.83,.07,.06,.16,.12,.24,.18,0,.26-.01,.53-.02,.79Zm-.31-2.15c-.58-.47-1.11-1.04-1.62-1.59,0-.37-.02-.74-.03-1.1,.31,.31,.66,.6,.99,.86,.29,.23,.64,.53,1.01,.65,.01,.49,.02,.98,.02,1.45-.12-.09-.24-.18-.36-.28Zm3.46,4.94c-.42,.06-.84,.13-1.24,.24,.17-2.71,.31-5.42-.03-8.13,.45,.04,.96-.02,1.42-.09,.11,2.68-.02,5.31-.15,7.99Z"/><g><path class="cls-1" d="M21.84,100.66v2.46h3.76v-2.46c0-.35,.08-.62,.24-.79s.37-.26,.62-.26,.47,.09,.64,.26,.24,.44,.24,.79v6.77c0,.36-.08,.62-.25,.8s-.38,.26-.63,.26-.47-.09-.63-.27-.23-.44-.23-.79v-2.89h-3.76v2.89c0,.36-.08,.62-.25,.8s-.38,.26-.63,.26-.47-.09-.63-.27-.23-.44-.23-.79v-6.77c0-.35,.08-.62,.23-.79s.36-.26,.63-.26,.47,.09,.64,.26,.24,.44,.24,.79Z"/><path class="cls-1" d="M33.56,105.63h-3.13c0,.36,.08,.68,.22,.96s.33,.49,.57,.63,.5,.21,.78,.21c.19,0,.37-.02,.52-.07s.31-.12,.46-.21,.29-.2,.41-.31,.29-.26,.49-.45c.08-.07,.2-.11,.35-.11,.16,0,.3,.04,.4,.13s.15,.22,.15,.38c0,.14-.06,.31-.17,.51s-.28,.38-.51,.56-.52,.33-.86,.44-.74,.18-1.19,.18c-1.03,0-1.83-.29-2.4-.88s-.86-1.38-.86-2.38c0-.47,.07-.91,.21-1.32s.35-.75,.62-1.04,.6-.51,1-.67,.83-.23,1.31-.23c.62,0,1.16,.13,1.61,.4s.78,.6,1,1.02,.33,.84,.33,1.28c0,.4-.12,.66-.35,.78s-.55,.18-.97,.18Zm-3.13-.91h2.9c-.04-.55-.19-.96-.44-1.23s-.59-.41-1.01-.41-.73,.14-.98,.41-.41,.68-.47,1.22Z"/><path class="cls-1" d="M37.81,106.18v1.34c0,.32-.08,.57-.23,.73s-.35,.24-.58,.24-.42-.08-.57-.25-.22-.41-.22-.73v-4.45c0-.72,.26-1.08,.78-1.08,.27,0,.46,.08,.57,.25s.18,.42,.19,.74c.19-.33,.39-.58,.59-.74s.47-.25,.81-.25,.66,.08,.98,.25,.47,.39,.47,.67c0,.2-.07,.36-.2,.48s-.28,.19-.44,.19c-.06,0-.2-.04-.42-.11s-.42-.11-.59-.11c-.23,0-.43,.06-.57,.18s-.26,.31-.35,.55-.14,.53-.17,.86-.05,.74-.05,1.22Z"/><path class="cls-1" d="M42.91,106.18v1.34c0,.32-.08,.57-.23,.73s-.35,.24-.58,.24-.42-.08-.57-.25-.22-.41-.22-.73v-4.45c0-.72,.26-1.08,.78-1.08,.27,0,.46,.08,.57,.25s.18,.42,.19,.74c.19-.33,.39-.58,.59-.74s.47-.25,.81-.25,.66,.08,.98,.25,.47,.39,.47,.67c0,.2-.07,.36-.2,.48s-.28,.19-.44,.19c-.06,0-.2-.04-.42-.11s-.42-.11-.59-.11c-.23,0-.43,.06-.57,.18s-.26,.31-.35,.55-.14,.53-.17,.86-.05,.74-.05,1.22Z"/><path class="cls-1" d="M50.32,107.59c-.39,.3-.76,.53-1.12,.68s-.77,.23-1.22,.23c-.41,0-.77-.08-1.08-.24s-.55-.38-.72-.66-.25-.58-.25-.9c0-.44,.14-.81,.42-1.12s.66-.52,1.14-.62c.1-.02,.35-.08,.76-.16s.75-.16,1.03-.23,.6-.15,.93-.25c-.02-.42-.1-.73-.25-.93s-.46-.3-.93-.3c-.41,0-.71,.06-.92,.17s-.38,.28-.53,.51-.25,.38-.31,.45-.19,.11-.39,.11c-.18,0-.33-.06-.47-.17s-.2-.26-.2-.44c0-.28,.1-.55,.3-.82s.51-.48,.93-.66,.95-.26,1.58-.26c.7,0,1.26,.08,1.66,.25s.69,.43,.85,.79,.25,.84,.25,1.43c0,.38,0,.69,0,.96s0,.55,0,.87c0,.3,.05,.61,.15,.94s.15,.54,.15,.63c0,.16-.08,.31-.23,.45s-.33,.2-.52,.2c-.16,0-.33-.08-.49-.23s-.33-.38-.51-.67Zm-.11-2.31c-.23,.09-.58,.18-1.02,.27s-.76,.17-.93,.21-.34,.13-.49,.26-.23,.31-.23,.55,.09,.45,.28,.62,.42,.25,.72,.25c.32,0,.61-.07,.88-.21s.46-.32,.59-.54c.14-.24,.22-.64,.22-1.2v-.23Z"/><path class="cls-1" d="M58.73,105.35v2.13c0,.34-.08,.59-.23,.76s-.35,.25-.6,.25-.44-.08-.59-.25-.23-.42-.23-.76v-2.55c0-.4-.01-.71-.04-.94s-.1-.41-.22-.55-.31-.21-.57-.21c-.52,0-.87,.18-1.03,.54s-.25,.88-.25,1.55v2.16c0,.33-.08,.58-.23,.75s-.35,.25-.59,.25-.44-.08-.59-.25-.23-.42-.23-.75v-4.58c0-.3,.07-.53,.21-.69s.32-.23,.55-.23,.4,.07,.55,.22,.22,.35,.22,.61v.15c.28-.33,.57-.58,.89-.73s.67-.23,1.05-.23,.75,.08,1.04,.24,.53,.4,.71,.73c.27-.33,.56-.57,.87-.73s.65-.24,1.03-.24c.44,0,.81,.09,1.13,.26s.55,.42,.71,.74c.14,.29,.21,.74,.21,1.37v3.12c0,.34-.08,.59-.23,.76s-.35,.25-.6,.25-.44-.08-.59-.25-.23-.42-.23-.75v-2.69c0-.34-.01-.62-.04-.83s-.11-.38-.24-.52-.32-.21-.59-.21c-.21,0-.41,.06-.6,.19s-.34,.29-.44,.5c-.12,.27-.18,.75-.18,1.43Z"/><path class="cls-1" d="M64.84,101.24c-.22,0-.41-.07-.57-.21s-.24-.33-.24-.58c0-.23,.08-.41,.24-.56s.35-.22,.57-.22,.39,.07,.55,.2,.24,.33,.24,.58-.08,.44-.23,.58-.34,.21-.56,.21Zm.79,1.65v4.62c0,.32-.08,.56-.23,.73s-.35,.25-.58,.25-.42-.08-.57-.25-.22-.41-.22-.72v-4.58c0-.32,.07-.55,.22-.71s.34-.24,.57-.24,.43,.08,.58,.24,.23,.38,.23,.67Z"/><path class="cls-1" d="M71.75,105.63h-3.13c0,.36,.08,.68,.22,.96s.33,.49,.57,.63,.5,.21,.78,.21c.19,0,.37-.02,.52-.07s.31-.12,.46-.21,.29-.2,.41-.31,.29-.26,.49-.45c.08-.07,.2-.11,.35-.11,.16,0,.3,.04,.4,.13s.15,.22,.15,.38c0,.14-.06,.31-.17,.51s-.28,.38-.51,.56-.52,.33-.86,.44-.74,.18-1.19,.18c-1.03,0-1.83-.29-2.4-.88s-.86-1.38-.86-2.38c0-.47,.07-.91,.21-1.32s.35-.75,.62-1.04,.6-.51,1-.67,.83-.23,1.31-.23c.62,0,1.16,.13,1.61,.4s.78,.6,1,1.02,.33,.84,.33,1.28c0,.4-.12,.66-.35,.78s-.55,.18-.97,.18Zm-3.13-.91h2.9c-.04-.55-.19-.96-.44-1.23s-.59-.41-1.01-.41-.73,.14-.98,.41-.41,.68-.47,1.22Z"/><path class="cls-1" d="M75.87,102.87v.19c.28-.37,.59-.64,.92-.82s.72-.26,1.15-.26,.8,.09,1.13,.28,.58,.44,.74,.78c.11,.2,.17,.41,.21,.63s.05,.52,.05,.87v2.98c0,.32-.07,.56-.22,.73s-.34,.25-.57,.25-.43-.08-.58-.25-.22-.41-.22-.72v-2.67c0-.53-.07-.93-.22-1.21s-.44-.42-.88-.42c-.29,0-.54,.08-.78,.25s-.41,.4-.52,.7c-.08,.24-.12,.68-.12,1.34v2c0,.32-.08,.57-.23,.73s-.34,.24-.58,.24-.42-.08-.57-.25-.22-.41-.22-.72v-4.62c0-.3,.07-.53,.2-.68s.31-.23,.54-.23c.14,0,.27,.03,.38,.1s.2,.17,.27,.3,.1,.29,.1,.49Z"/><path class="cls-1" d="M81.75,102.12h.18v-.96c0-.26,0-.46,.02-.61s.05-.27,.11-.38c.06-.11,.15-.2,.27-.27s.25-.1,.39-.1c.2,0,.39,.08,.55,.23,.11,.1,.18,.23,.21,.37s.04,.35,.04,.62v1.09h.59c.23,0,.4,.05,.52,.16s.18,.25,.18,.41c0,.21-.08,.37-.25,.45s-.41,.13-.73,.13h-.3v2.94c0,.25,0,.44,.03,.58s.06,.24,.14,.33,.2,.13,.37,.13c.09,0,.22-.02,.38-.05s.29-.05,.38-.05c.13,0,.25,.05,.35,.16s.16,.23,.16,.38c0,.26-.14,.46-.42,.59s-.69,.21-1.21,.21c-.5,0-.88-.08-1.14-.25s-.43-.4-.51-.7-.12-.69-.12-1.19v-3.07h-.21c-.23,0-.41-.05-.53-.16s-.18-.25-.18-.42,.06-.31,.19-.41,.31-.16,.55-.16Z"/><path class="cls-1" d="M89.95,107.59c-.39,.3-.76,.53-1.12,.68s-.77,.23-1.22,.23c-.41,0-.77-.08-1.08-.24s-.55-.38-.72-.66-.25-.58-.25-.9c0-.44,.14-.81,.42-1.12s.66-.52,1.14-.62c.1-.02,.35-.08,.76-.16s.75-.16,1.03-.23,.6-.15,.93-.25c-.02-.42-.1-.73-.25-.93s-.46-.3-.93-.3c-.41,0-.71,.06-.92,.17s-.38,.28-.53,.51-.25,.38-.31,.45-.19,.11-.39,.11c-.18,0-.33-.06-.47-.17s-.2-.26-.2-.44c0-.28,.1-.55,.3-.82s.51-.48,.93-.66,.95-.26,1.58-.26c.7,0,1.26,.08,1.66,.25s.69,.43,.85,.79,.25,.84,.25,1.43c0,.38,0,.69,0,.96s0,.55,0,.87c0,.3,.05,.61,.15,.94s.15,.54,.15,.63c0,.16-.08,.31-.23,.45s-.33,.2-.52,.2c-.16,0-.33-.08-.49-.23s-.33-.38-.51-.67Zm-.11-2.31c-.23,.09-.58,.18-1.02,.27s-.76,.17-.93,.21-.34,.13-.49,.26-.23,.31-.23,.55,.09,.45,.28,.62,.42,.25,.72,.25c.32,0,.61-.07,.88-.21s.46-.32,.59-.54c.14-.24,.22-.64,.22-1.2v-.23Z"/><path class="cls-1" d="M98.19,106.4c0,.44-.11,.82-.32,1.13s-.53,.55-.95,.71-.93,.24-1.53,.24-1.07-.09-1.48-.26-.71-.4-.91-.66-.29-.53-.29-.79c0-.18,.06-.33,.19-.45s.28-.19,.47-.19c.17,0,.3,.04,.39,.12s.18,.2,.26,.35c.16,.29,.36,.5,.59,.64s.54,.21,.93,.21c.32,0,.58-.07,.79-.21s.31-.31,.31-.49c0-.28-.11-.49-.32-.62s-.56-.25-1.05-.37c-.55-.14-1-.28-1.34-.43s-.62-.35-.83-.59-.31-.55-.31-.91c0-.32,.1-.62,.29-.91s.47-.51,.85-.68,.82-.25,1.35-.25c.41,0,.79,.04,1.12,.13s.61,.2,.83,.35,.39,.3,.5,.48,.17,.35,.17,.52c0,.18-.06,.33-.18,.45s-.3,.18-.52,.18c-.16,0-.3-.05-.42-.14s-.25-.23-.4-.42c-.12-.16-.26-.28-.43-.38s-.39-.14-.67-.14-.53,.06-.72,.18-.29,.28-.29,.46c0,.17,.07,.31,.21,.41s.33,.2,.57,.27,.57,.16,.98,.26c.5,.12,.9,.27,1.22,.43s.55,.37,.71,.59,.24,.49,.24,.78Z"/><path class="cls-1" d="M106.59,107.59c-.39,.3-.76,.53-1.12,.68s-.77,.23-1.22,.23c-.41,0-.77-.08-1.08-.24s-.55-.38-.72-.66-.25-.58-.25-.9c0-.44,.14-.81,.42-1.12s.66-.52,1.14-.62c.1-.02,.35-.08,.76-.16s.75-.16,1.03-.23,.6-.15,.93-.25c-.02-.42-.1-.73-.25-.93s-.46-.3-.93-.3c-.41,0-.71,.06-.92,.17s-.38,.28-.53,.51-.25,.38-.31,.45-.19,.11-.39,.11c-.18,0-.33-.06-.47-.17s-.2-.26-.2-.44c0-.28,.1-.55,.3-.82s.51-.48,.93-.66,.95-.26,1.58-.26c.7,0,1.26,.08,1.66,.25s.69,.43,.85,.79,.25,.84,.25,1.43c0,.38,0,.69,0,.96s0,.55,0,.87c0,.3,.05,.61,.15,.94s.15,.54,.15,.63c0,.16-.08,.31-.23,.45s-.33,.2-.52,.2c-.16,0-.33-.08-.49-.23s-.33-.38-.51-.67Zm-.11-2.31c-.23,.09-.58,.18-1.02,.27s-.76,.17-.93,.21-.34,.13-.49,.26-.23,.31-.23,.55,.09,.45,.28,.62,.42,.25,.72,.25c.32,0,.61-.07,.88-.21s.46-.32,.59-.54c.14-.24,.22-.64,.22-1.2v-.23Z"/><path class="cls-1" d="M47.37,122.74h-2.62c-.38,0-.65-.08-.81-.25s-.24-.44-.24-.81v-6.46c0-.38,.08-.65,.25-.82s.43-.25,.81-.25h2.78c.41,0,.77,.03,1.07,.08s.57,.15,.81,.29c.2,.12,.38,.27,.54,.46s.28,.39,.36,.62,.12,.46,.12,.71c0,.86-.43,1.49-1.29,1.89,1.13,.36,1.69,1.06,1.69,2.1,0,.48-.12,.91-.37,1.3s-.58,.67-1,.85c-.26,.11-.56,.19-.9,.23s-.74,.07-1.19,.07Zm-1.94-7.28v2.22h1.59c.43,0,.77-.04,1-.12s.42-.24,.54-.47c.1-.16,.15-.35,.15-.55,0-.43-.15-.72-.46-.86s-.78-.21-1.41-.21h-1.41Zm1.81,3.47h-1.81v2.51h1.87c1.18,0,1.76-.42,1.76-1.27,0-.43-.15-.75-.46-.94s-.76-.29-1.37-.29Z"/><path class="cls-1" d="M56.26,121.99c-.39,.3-.76,.53-1.12,.68s-.77,.23-1.22,.23c-.41,0-.77-.08-1.08-.24s-.55-.38-.72-.66-.25-.58-.25-.9c0-.44,.14-.81,.42-1.12s.66-.52,1.14-.62c.1-.02,.35-.08,.76-.16s.75-.16,1.03-.23,.6-.15,.93-.25c-.02-.42-.1-.73-.25-.93s-.46-.3-.93-.3c-.41,0-.71,.06-.92,.17s-.38,.28-.53,.51-.25,.38-.31,.45-.19,.11-.39,.11c-.18,0-.33-.06-.47-.17s-.2-.26-.2-.44c0-.28,.1-.55,.3-.82s.51-.48,.93-.66,.95-.26,1.58-.26c.7,0,1.26,.08,1.66,.25s.69,.43,.85,.79,.25,.84,.25,1.43c0,.38,0,.69,0,.96s0,.55,0,.87c0,.3,.05,.61,.15,.94s.15,.54,.15,.63c0,.16-.08,.31-.23,.45s-.33,.2-.52,.2c-.16,0-.33-.08-.49-.23s-.33-.38-.51-.67Zm-.11-2.31c-.23,.09-.58,.18-1.02,.27s-.76,.17-.93,.21-.34,.13-.49,.26-.23,.31-.23,.55,.09,.45,.28,.62,.42,.25,.72,.25c.32,0,.61-.07,.88-.21s.46-.32,.59-.54c.14-.24,.22-.64,.22-1.2v-.23Z"/><path class="cls-1" d="M59.14,116.52h.18v-.96c0-.26,0-.46,.02-.61s.05-.27,.11-.38c.06-.11,.15-.2,.27-.27s.25-.1,.39-.1c.2,0,.39,.08,.55,.23,.11,.1,.18,.23,.21,.37s.04,.35,.04,.62v1.09h.59c.23,0,.4,.05,.52,.16s.18,.25,.18,.41c0,.21-.08,.37-.25,.45s-.41,.13-.73,.13h-.3v2.94c0,.25,0,.44,.03,.58s.06,.24,.14,.33,.2,.13,.37,.13c.09,0,.22-.02,.38-.05s.29-.05,.38-.05c.13,0,.25,.05,.35,.16s.16,.23,.16,.38c0,.26-.14,.46-.42,.59s-.69,.21-1.21,.21c-.5,0-.88-.08-1.14-.25s-.43-.4-.51-.7-.12-.69-.12-1.19v-3.07h-.21c-.23,0-.41-.05-.53-.16s-.18-.25-.18-.42,.06-.31,.19-.41,.31-.16,.55-.16Z"/><path class="cls-1" d="M67.76,120.03h-3.13c0,.36,.08,.68,.22,.96s.33,.49,.57,.63,.5,.21,.78,.21c.19,0,.37-.02,.52-.07s.31-.12,.46-.21,.29-.2,.41-.31,.29-.26,.49-.45c.08-.07,.2-.11,.35-.11,.16,0,.3,.04,.4,.13s.15,.22,.15,.38c0,.14-.06,.31-.17,.51s-.28,.38-.51,.56-.52,.33-.86,.44-.74,.18-1.19,.18c-1.03,0-1.83-.29-2.4-.88s-.86-1.38-.86-2.38c0-.47,.07-.91,.21-1.32s.35-.75,.62-1.04,.6-.51,1-.67,.83-.23,1.31-.23c.62,0,1.16,.13,1.61,.4s.78,.6,1,1.02,.33,.84,.33,1.28c0,.4-.12,.66-.35,.78s-.55,.18-.97,.18Zm-3.13-.91h2.9c-.04-.55-.19-.96-.44-1.23s-.59-.41-1.01-.41-.73,.14-.98,.41-.41,.68-.47,1.22Z"/><path class="cls-1" d="M72.02,120.58v1.34c0,.32-.08,.57-.23,.73s-.35,.24-.58,.24-.42-.08-.57-.25-.22-.41-.22-.73v-4.45c0-.72,.26-1.08,.78-1.08,.27,0,.46,.08,.57,.25s.18,.42,.19,.74c.19-.33,.39-.58,.59-.74s.47-.25,.81-.25,.66,.08,.98,.25,.47,.39,.47,.67c0,.2-.07,.36-.2,.48s-.28,.19-.44,.19c-.06,0-.2-.04-.42-.11s-.42-.11-.59-.11c-.23,0-.43,.06-.57,.18s-.26,.31-.35,.55-.14,.53-.17,.86-.05,.74-.05,1.22Z"/><path class="cls-1" d="M77.01,114.09h.79c.2,0,.3,.03,.3,.09,0,.03-.11,.16-.33,.38s-.44,.44-.66,.64-.38,.33-.46,.37c-.22,.11-.46,.17-.71,.17-.17,0-.25-.05-.25-.15,0-.07,.05-.18,.15-.35l.26-.49c.15-.29,.29-.47,.4-.54s.29-.12,.52-.12Zm.28,3.21v4.62c0,.32-.08,.56-.23,.73s-.35,.25-.58,.25-.42-.08-.57-.25-.22-.41-.22-.72v-4.58c0-.32,.07-.55,.22-.71s.34-.24,.57-.24,.43,.08,.58,.24,.23,.38,.23,.67Z"/><path class="cls-1" d="M82.98,121.99c-.39,.3-.76,.53-1.12,.68s-.77,.23-1.22,.23c-.41,0-.77-.08-1.08-.24s-.55-.38-.72-.66-.25-.58-.25-.9c0-.44,.14-.81,.42-1.12s.66-.52,1.14-.62c.1-.02,.35-.08,.76-.16s.75-.16,1.03-.23,.6-.15,.93-.25c-.02-.42-.1-.73-.25-.93s-.46-.3-.93-.3c-.41,0-.71,.06-.92,.17s-.38,.28-.53,.51-.25,.38-.31,.45-.19,.11-.39,.11c-.18,0-.33-.06-.47-.17s-.2-.26-.2-.44c0-.28,.1-.55,.3-.82s.51-.48,.93-.66,.95-.26,1.58-.26c.7,0,1.26,.08,1.66,.25s.69,.43,.85,.79,.25,.84,.25,1.43c0,.38,0,.69,0,.96s0,.55,0,.87c0,.3,.05,.61,.15,.94s.15,.54,.15,.63c0,.16-.08,.31-.23,.45s-.33,.2-.52,.2c-.16,0-.33-.08-.49-.23s-.33-.38-.51-.67Zm-.11-2.31c-.23,.09-.58,.18-1.02,.27s-.76,.17-.93,.21-.34,.13-.49,.26-.23,.31-.23,.55,.09,.45,.28,.62,.42,.25,.72,.25c.32,0,.61-.07,.88-.21s.46-.32,.59-.54c.14-.24,.22-.64,.22-1.2v-.23Z"/></g></svg>