<?xml version="1.0" encoding="UTF-8"?><svg id="Capa_1" xmlns="http://www.w3.org/2000/svg" viewBox="0 0 128 141"><defs><style>.cls-1{font-family:ArialRoundedMTBold, 'Arial Rounded MT Bold';font-size:12px;}.cls-1,.cls-2{fill:#253786;}.cls-3{letter-spacing:-.05em;}.cls-2{fill-rule:evenodd;}</style></defs><path class="cls-2" d="M76.69,76.11c.37-.27,1.47-1.41-.97-2.44-2.44-1.04-5.32-1.47-5.17-4.42,.15-3.01,4.9-2.66,6.14-2.48,1.32,.2,2.88,1.34,3.32,2.18s0,1.81-.91,1.81-1.47-.77-1.35-1.1c.12-.34,.03-1.54-.97-1.88s-2.66-.3-3.48,.57c-.81,.87-.85,2.04,.69,3.01,1.53,.97,4.1,1.6,4.88,2.78s.3,2.28-.75,2.95c-1,.64-3.88,.87-5.51,0s-2.6-2.64-1.78-2.71c.81-.07,1.6-.07,1.75,.4,.4,1.19,2.88,2.2,4.1,1.34m12.04-8.59h2.29l-.42,9.71h-1.87v-2.7h-4.79l-.12,2.7h-1.87v-9.71h2.29l-.25,5.78h4.74v-5.78h0Zm-24.79-.92c2.76,0,4.99,2.36,4.99,5.27s-2.23,5.27-4.99,5.27-4.99-2.36-4.99-5.27,2.23-5.27,4.99-5.27Zm0,1.06c1.67,0,3.02,1.88,3.02,4.21s-1.35,4.21-3.02,4.21-3.02-1.88-3.02-4.21,1.35-4.21,3.02-4.21Zm-11.37-1.06c2.76,0,4.99,2.36,4.99,5.27s-2.23,5.27-4.99,5.27-4.99-2.36-4.99-5.27,2.23-5.27,4.99-5.27Zm0,1.06c1.67,0,3.02,1.88,3.02,4.21s-1.35,4.21-3.02,4.21-3.02-1.88-3.02-4.21,1.35-4.21,3.02-4.21Zm47.7-3.6c1.36,0,1.43,2.22,.09,2.24H43.78l-4.99,14.68-12.11-40.12h17.75c1.84-.04,2.08,3.06,0,3.09h-13.66l8.26,28.69,3.29-8.58h57.93Z"/><text class="cls-1" transform="translate(28.54 115.54)"><tspan x="0" y="0">Línea </tspan><tspan class="cls-3" x="35.01" y="0">V</tspan><tspan x="42.67" y="0">oosh</tspan></text></svg>