<?xml version="1.0" encoding="UTF-8"?><svg id="Capa_1" xmlns="http://www.w3.org/2000/svg" viewBox="0 0 128 141"><defs><style>.cls-1{fill:#253786;}</style></defs><g><path class="cls-1" d="M89.88,73.15c-.37-2.78-2.6-4.93-4.81-6.45-.03-.02-.05-.02-.08-.03,.3-.82,.46-1.69,.4-2.62-.17-2.7-2.68-5.06-4.57-6.8,1.38-.85,2.83-2.47,3.26-3.97,.54-1.87-1.33-3.62-2.48-4.78-1.67-1.68-3.7-3.68-6.21-3.79-2.09-.09-3.87,1.87-5.04,3.43-1.52-.94-2.9-.83-4.29-.22-.09-.1-.2-.18-.33-.23-.26-.1-.68-.14-.79-.44-.13-.36,.09-.84,.21-1.17,.17-.44-.5-.83-.79-.46-.08,.09-.13,.19-.2,.28-.5-.02-1.01,.07-1.48-.15-.75-.36-.16-1.49,.13-1.92,.33-.49-.21-1.14-.75-.98-.94,.29-1.49,.07-1.96-.57,0-.11-.04-.23-.16-.3-.02-.01-.04-.02-.06-.03-.03-.05-.06-.09-.09-.14-.28-.52-.54-1.12-.77-1.69,.27-.38-.13-.95-.64-.88-2,.3-3.5-.81-3.15-2.97,.09-.53-.44-1.09-.98-.75-1.71,1.08-2.79-.15-2.89-1.89-.02-.36-.43-.54-.7-.42-.08,0-.16,0-.24,.04-1.45,.66-2.71,.89-3.72-.64-.25-.37-.96-.39-1.05,.14-.31,1.86-1.71,2.72-3.42,1.75-.3-.17-.56,.03-.62,.28-.18-.04-.4,.05-.43,.24-.09,.51,.02,.97-.06,1.49-.18,1.09-1.42,1.31-2.31,1.25-.47-.03-.78,.65-.4,.96,.65,.53,1.15,1.4,1.18,2.21-.42-.04-.58,.58-.14,.7,0,0,.02,0,.03,0-.16,.39-.48,.73-1.03,.94-.36,.14-.37,.54-.17,.74-.02,0-.05,0-.07,.01-.28,.09-.45,.5-.19,.71,.59,.48,1.89,.94,2.37,1.59-.28,.14-.34,.61,.05,.69,.03,0,.07,.02,.11,.02-.07,.26-.29,.56-.7,.88-.43,.34-.08,1.13,.45,1.09,1.65-.14,3.2,.17,2.59,2.22-.09,.31,.18,.5,.43,.46-.25,.29-.21,.79,.27,.96,1.09,.38,3.64,1.06,2.4,2.64-.41,.53-.04,1.25,.65,1.12,.99-.19,1.94-.02,2.47,.56-.27,.05-.32,.5-.02,.56,.12,.02,.25,.06,.37,.08,.05,.19,.09,.39,.09,.63-.4,.28-.21,1.12,.36,1.06,1.26-.12,2.29,0,3.09,.93-.16,.25-.2,.51-.12,.76-.48,.02-.96,.56-.61,1.04,3.07,4.23,6.58,8.09,10.41,11.65,2.55,2.37,5.49,5.31,9.17,5.32,1.07,0,2.13-.42,3.14-1.05,1.95,4.83,8.18,5.37,11.99,2.4,1.8-1.41,2.98-3.42,2.97-5.72,.25-.26,.18-.61-.07-.79Zm-2.18-.91c.15,.38,.27,.77,.33,1.17-.27,.08-.54,.16-.82,.21-.73,.15-1.48,.2-2.23,.24,.03-.34,.03-.69-.04-1.04-.02-.1-.05-.2-.08-.29,.6,0,1.2-.02,1.8-.11,.33-.05,.69-.09,1.04-.18Zm-9.37,2.29c.63-.61,1.22-1.2,1.74-1.69,.48-.45,.98-.92,1.47-1.41,.06,.05,.13,.1,.21,.14,1.44,.57,2.37,2,1.17,3.32-1.33,1.47-3.26,.69-4.59-.36Zm.1,1.63c-.17,.03-.34,.05-.51,.07-.56,.06-1.12,.1-1.68,.14,.42-.33,.83-.67,1.23-1.03,.29,.31,.62,.58,.96,.82Zm4.91-5.42c.56-.05,1.12-.07,1.69-.08,.53-.01,1.16,.02,1.69-.15,.14,.19,.28,.38,.4,.58-.17,.06-.33,.12-.5,.17-.72,.21-1.47,.33-2.22,.38,0,0,0,0-.01,0-.28-.36-.65-.66-1.05-.91Zm2.43-1.34c-.21,.04-.42,.08-.62,.11-.75,.11-1.5,.24-2.23,.42,.5-.58,.97-1.18,1.35-1.82,.55,.39,1.05,.82,1.5,1.28Zm-10.4-23.01c1.89-.11,3.77,2.19,4.95,3.38,.73,.73,2.37,2.12,1.84,3.31-.55,1.23-1.86,1.92-2.65,2.98-.46-.42-.92-.85-1.39-1.28,.89-.24,1.57-1.11,1.65-2.02,.09-1.1-.5-2.11-1.18-2.92-1.55-1.85-4.64-2.69-6.05-.24-.04,.07-.06,.14-.07,.2-.4-.33-.81-.67-1.21-.99,1.2-1.01,2.49-2.33,4.11-2.42Zm1.75,7.06c-.09,.06-.16,.14-.22,.22-1.19-1.09-2.4-2.17-3.62-3.2,.07-.03,.14-.07,.2-.13,1.21-1.19,2.68-.67,3.75,.43,.42,.43,.84,1.04,.88,1.66,.05,.63-.56,.73-1.01,1.03Zm-12.93-4.91c.1,.09,.21,.17,.32,.24-.33,.21-.66,.44-1,.68-.17-.22-.38-.47-.6-.73,.01,0,.01,0,.03,0,.08-.02,.15-.03,.23-.05,.17-.02,.33-.07,.5-.09,.17-.02,.34-.03,.51-.05Zm-1.81-1.51c.41,.14,.86,.18,1.29,.12,0,.11,0,.24,.02,.35-.16,.04-.32,.09-.48,.14-.31,.1-.63,.25-.78,.5-.32-.38-.68-.78-1.06-1.21,.31,.03,.67,.09,1.01,.09Zm-18.57,1.17c.35,.04,.69,.1,1.04,.19,.16,.23,.31,.44,.46,.64,.3,.41,.66,.89,1.06,1.41-.76-.12-1.53-.24-2.3-.36-.03,0-.06,0-.08,0,.27-.72,.16-1.36-.17-1.88Zm.91-9.47c2.92-2.05,9.05,3.67,10.95,5.29,2.3,1.97,4.59,4.15,6.48,6.54-1.19,1.07-2.27,2.31-3.33,3.47-.93,1.02-2,1.91-3.05,2.81-4.11-3.31-16.91-13.98-11.04-18.11Zm16.37,6.07c-.05,.4-.02,.8,.16,1.2,0,0-.02,0-.02,0-.24,.02-.38,.16-.43,.33-.46-.5-.96-1.01-1.48-1.54,.56,.04,1.19,.08,1.77,.01Zm-2.24-1.97c.17,.33,.38,.62,.62,.87-.24,.01-.47,.02-.71,.03-.16,0-.27,.07-.35,.15-.37-.36-.75-.72-1.14-1.07,.33,0,.66,.02,.99,.02,.19,0,.39,0,.59,0Zm-2.19-2.1s.06-.05,.1-.07c.45,.08,.93,.07,1.43-.1,.03,.38,.11,.76,.21,1.14-.05,0-.1,0-.15,0-.65,0-1.31,.03-1.96,.04-.07,0-.13,.02-.19,.04-.35-.3-.7-.6-1.06-.89,.54-.02,1.1,0,1.61-.17Zm-2.27-1.96c.2,.39,.46,.73,.75,1.03-.42,.05-.85,.13-1.27,.21-.73-.53-1.46-1.03-2.19-1.46,.22,0,.44,.02,.66,.04,.69,.05,1.36,.23,2.04,.19Zm-7.92-4.74c1.13,.92,2.78,1.34,3.93,.48,.03,.28,.09,.55,.18,.81-1.67-.04-3.31,.03-4.97-.09,.36-.31,.66-.71,.86-1.2Zm-2.56,1.88c2.33,.6,4.83,.64,7.22,.48,.66,.84,1.69,1.26,2.78,.87,.02,.14,.04,.28,.07,.41-1.18-.3-2.61-.2-3.82,.06-1.96-.92-3.86-1.31-5.47-.77-.5-.15-1.06-.13-1.58-.18-.28-.03-.56-.05-.85-.07,.12-.39,.12-.8-.08-1.21,.58,.31,1.16,.43,1.71,.4Zm-2.09,1.62c.48,.05,.99,.16,1.5,.22-.12,.09-.23,.18-.34,.29-.28,.27-.5,.57-.68,.88-.29-.07-.58-.11-.78-.16-.35-.09-.71-.18-1.07-.22,.53-.24,1.02-.6,1.37-1.01Zm-.64,1.97c.25,.09,.5,.18,.75,.26-.15,.5-.21,1.01-.19,1.55-.17-.02-.34-.03-.51-.05-.2-.03-.4-.07-.6-.11,.04-.69-.15-1.41-.5-2.06,.33,.18,.69,.29,1.05,.41Zm-1.4,3.95c-.07,0-.12,.04-.16,.08-.19-.09-.39-.16-.58-.2,.76-.27,1.22-.78,1.45-1.39,.45,.12,.91,.22,1.36,.24,.07,.41,.17,.83,.31,1.25-.27-.01-.54,0-.76-.01-.55-.02-1.08-.02-1.62,.03Zm.78,.68c.18,.01,.35,.03,.53,.05,.38,.03,.76,.06,1.13,.11,.09,.01,.19,.03,.28,.04,.24,.57,.52,1.14,.83,1.68-.55-.11-1.12-.18-1.68-.25-.06-.29-.17-.58-.37-.88-.17-.25-.43-.51-.72-.75Zm2.84,3.61c-.47-.42-1.12-.7-1.84-.77,.04-.11,.06-.22,.09-.34,.72,.16,1.47,.28,2.15,.17,.19,.31,.39,.62,.58,.91-.33-.01-.66,.01-.97,.03Zm3.63,4.71c-.72-.84-1.99-1.41-3.14-1.63-.12-.02-.22,0-.31,.02,.05-.07,.09-.14,.13-.2,.04,.05,.09,.09,.18,.11l2.38,.42c.26,.05,.52,.1,.78,.15,.35,.43,.72,.88,1.11,1.33-.38-.06-.75-.12-1.13-.19Zm1.87,2.09c-.11,0-.19,.05-.24,.13-.35-.13-.73-.22-1.13-.26,.13-.46,.08-.89-.08-1.28,.32,.06,.64,.14,.96,.19,.13,.02,.27,.05,.4,.07,.38,.41,.77,.82,1.18,1.21-.37-.03-.73-.05-1.1-.05Zm.75,.69c.37,.04,.75,.1,1.12,.17,.06,.01,.13,.03,.19,.04,.58,.48,1.16,.94,1.76,1.3-.76-.14-1.53-.24-2.3-.32-.12-.48-.4-.88-.77-1.19Zm.81,2.21c.01-.08,0-.15,.01-.23,1.28,.36,2.58,.79,3.85,.78,.11,0,.2-.04,.27-.1-.36,.34-.72,.68-1.06,1.04-.7-1.03-1.81-1.51-3.07-1.5Zm18.46,18.25c-5.84-2.99-10.57-9.58-14.96-14.48,.31-.08,.59-.35,.58-.69,0-.22,4.34-3.7,4.58-3.96,2-2.13,6.41-8.56,9.94-7.06,2.18,.93,4.32,4.11,6.21,5.68,1.94,1.62,3.89,3.18,5.68,4.97,3.77,3.77,1.93,6.95-1.26,10.32-2.55,2.7-6.44,7.45-10.78,5.23Zm11.9,4.23c-1.08-.06-2.01-.45-2.85-1.01,2.09,.16,4.18,.35,6.27,.45-1.08,.45-2.27,.63-3.42,.56Zm5.31-1.76c-.08-.03-.17-.05-.27-.05-2.95,0-5.91-.08-8.85,.09-.37-.32-.73-.66-1.07-1.02,1.33,.11,2.95,.34,4.14-.19,.96,.27,1.96,.24,2.86-.22,.04,.03,.06,.07,.12,.08,1.26,.22,2.73,.32,4.11,.12-.28,.4-.62,.8-1.04,1.19Zm1.74-2.61c-.49,.16-.98,.32-1.48,.44-.87,.2-1.77,.25-2.66,.24,.12-.1,.24-.21,.35-.34,.31-.34,.51-.73,.67-1.14,1.03,.06,2.21,.13,3.29-.05-.03,.28-.08,.56-.16,.84Z"/><path class="cls-1" d="M81.66,63.01c-.75-.59-1.77-1.08-2.71-1.29-.84-.19-1.43,1.02-.61,1.44,.36,.18,.71,.4,1.05,.63,.37,.24,.68,.57,1.07,.78,.95,.52,2.11-.83,1.2-1.56Z"/><path class="cls-1" d="M81.15,65.67c-.19-.7-.94-.84-1.47-1.22-.47-.34-.8-.84-1.29-1.16-.6-.39-1.27,.25-1.13,.87,.12,.55,.58,1.04,.94,1.46,.38,.44,.86,.92,1.39,1.18,.33,.16,.74,.22,1.06,0,.02-.01,.04-.03,.06-.04,.36-.24,.56-.65,.44-1.08Z"/><path class="cls-1" d="M79.32,67.67c-.14-.63-.67-.71-1.16-.96-.38-.2-.58-.52-.84-.84-.43-.52-1.34-.09-1.31,.54,.04,1.15,1.12,1.96,2.1,2.37,.34,.14,.69-.05,.95-.25,.02-.01,.03-.03,.05-.04,.24-.19,.28-.56,.22-.83Z"/></g><g><path class="cls-1" d="M21.84,100.66v2.46h3.76v-2.46c0-.35,.08-.62,.24-.79s.37-.26,.62-.26,.47,.09,.64,.26,.24,.44,.24,.79v6.77c0,.36-.08,.62-.25,.8s-.38,.26-.63,.26-.47-.09-.63-.27-.23-.44-.23-.79v-2.89h-3.76v2.89c0,.36-.08,.62-.25,.8s-.38,.26-.63,.26-.47-.09-.63-.27-.23-.44-.23-.79v-6.77c0-.35,.08-.62,.23-.79s.36-.26,.63-.26,.47,.09,.64,.26,.24,.44,.24,.79Z"/><path class="cls-1" d="M33.56,105.63h-3.13c0,.36,.08,.68,.22,.96s.33,.49,.57,.63,.5,.21,.78,.21c.19,0,.37-.02,.52-.07s.31-.12,.46-.21,.29-.2,.41-.31,.29-.26,.49-.45c.08-.07,.2-.11,.35-.11,.16,0,.3,.04,.4,.13s.15,.22,.15,.38c0,.14-.06,.31-.17,.51s-.28,.38-.51,.56-.52,.33-.86,.44-.74,.18-1.19,.18c-1.03,0-1.83-.29-2.4-.88s-.86-1.38-.86-2.38c0-.47,.07-.91,.21-1.32s.35-.75,.62-1.04,.6-.51,1-.67,.83-.23,1.31-.23c.62,0,1.16,.13,1.61,.4s.78,.6,1,1.02,.33,.84,.33,1.28c0,.4-.12,.66-.35,.78s-.55,.18-.97,.18Zm-3.13-.91h2.9c-.04-.55-.19-.96-.44-1.23s-.59-.41-1.01-.41-.73,.14-.98,.41-.41,.68-.47,1.22Z"/><path class="cls-1" d="M37.81,106.18v1.34c0,.32-.08,.57-.23,.73s-.35,.24-.58,.24-.42-.08-.57-.25-.22-.41-.22-.73v-4.45c0-.72,.26-1.08,.78-1.08,.27,0,.46,.08,.57,.25s.18,.42,.19,.74c.19-.33,.39-.58,.59-.74s.47-.25,.81-.25,.66,.08,.98,.25,.47,.39,.47,.67c0,.2-.07,.36-.2,.48s-.28,.19-.44,.19c-.06,0-.2-.04-.42-.11s-.42-.11-.59-.11c-.23,0-.43,.06-.57,.18s-.26,.31-.35,.55-.14,.53-.17,.86-.05,.74-.05,1.22Z"/><path class="cls-1" d="M42.91,106.18v1.34c0,.32-.08,.57-.23,.73s-.35,.24-.58,.24-.42-.08-.57-.25-.22-.41-.22-.73v-4.45c0-.72,.26-1.08,.78-1.08,.27,0,.46,.08,.57,.25s.18,.42,.19,.74c.19-.33,.39-.58,.59-.74s.47-.25,.81-.25,.66,.08,.98,.25,.47,.39,.47,.67c0,.2-.07,.36-.2,.48s-.28,.19-.44,.19c-.06,0-.2-.04-.42-.11s-.42-.11-.59-.11c-.23,0-.43,.06-.57,.18s-.26,.31-.35,.55-.14,.53-.17,.86-.05,.74-.05,1.22Z"/><path class="cls-1" d="M50.32,107.59c-.39,.3-.76,.53-1.12,.68s-.77,.23-1.22,.23c-.41,0-.77-.08-1.08-.24s-.55-.38-.72-.66-.25-.58-.25-.9c0-.44,.14-.81,.42-1.12s.66-.52,1.14-.62c.1-.02,.35-.08,.76-.16s.75-.16,1.03-.23,.6-.15,.93-.25c-.02-.42-.1-.73-.25-.93s-.46-.3-.93-.3c-.41,0-.71,.06-.92,.17s-.38,.28-.53,.51-.25,.38-.31,.45-.19,.11-.39,.11c-.18,0-.33-.06-.47-.17s-.2-.26-.2-.44c0-.28,.1-.55,.3-.82s.51-.48,.93-.66,.95-.26,1.58-.26c.7,0,1.26,.08,1.66,.25s.69,.43,.85,.79,.25,.84,.25,1.43c0,.38,0,.69,0,.96s0,.55,0,.87c0,.3,.05,.61,.15,.94s.15,.54,.15,.63c0,.16-.08,.31-.23,.45s-.33,.2-.52,.2c-.16,0-.33-.08-.49-.23s-.33-.38-.51-.67Zm-.11-2.31c-.23,.09-.58,.18-1.02,.27s-.76,.17-.93,.21-.34,.13-.49,.26-.23,.31-.23,.55,.09,.45,.28,.62,.42,.25,.72,.25c.32,0,.61-.07,.88-.21s.46-.32,.59-.54c.14-.24,.22-.64,.22-1.2v-.23Z"/><path class="cls-1" d="M58.73,105.35v2.13c0,.34-.08,.59-.23,.76s-.35,.25-.6,.25-.44-.08-.59-.25-.23-.42-.23-.76v-2.55c0-.4-.01-.71-.04-.94s-.1-.41-.22-.55-.31-.21-.57-.21c-.52,0-.87,.18-1.03,.54s-.25,.88-.25,1.55v2.16c0,.33-.08,.58-.23,.75s-.35,.25-.59,.25-.44-.08-.59-.25-.23-.42-.23-.75v-4.58c0-.3,.07-.53,.21-.69s.32-.23,.55-.23,.4,.07,.55,.22,.22,.35,.22,.61v.15c.28-.33,.57-.58,.89-.73s.67-.23,1.05-.23,.75,.08,1.04,.24,.53,.4,.71,.73c.27-.33,.56-.57,.87-.73s.65-.24,1.03-.24c.44,0,.81,.09,1.13,.26s.55,.42,.71,.74c.14,.29,.21,.74,.21,1.37v3.12c0,.34-.08,.59-.23,.76s-.35,.25-.6,.25-.44-.08-.59-.25-.23-.42-.23-.75v-2.69c0-.34-.01-.62-.04-.83s-.11-.38-.24-.52-.32-.21-.59-.21c-.21,0-.41,.06-.6,.19s-.34,.29-.44,.5c-.12,.27-.18,.75-.18,1.43Z"/><path class="cls-1" d="M64.84,101.24c-.22,0-.41-.07-.57-.21s-.24-.33-.24-.58c0-.23,.08-.41,.24-.56s.35-.22,.57-.22,.39,.07,.55,.2,.24,.33,.24,.58-.08,.44-.23,.58-.34,.21-.56,.21Zm.79,1.65v4.62c0,.32-.08,.56-.23,.73s-.35,.25-.58,.25-.42-.08-.57-.25-.22-.41-.22-.72v-4.58c0-.32,.07-.55,.22-.71s.34-.24,.57-.24,.43,.08,.58,.24,.23,.38,.23,.67Z"/><path class="cls-1" d="M71.75,105.63h-3.13c0,.36,.08,.68,.22,.96s.33,.49,.57,.63,.5,.21,.78,.21c.19,0,.37-.02,.52-.07s.31-.12,.46-.21,.29-.2,.41-.31,.29-.26,.49-.45c.08-.07,.2-.11,.35-.11,.16,0,.3,.04,.4,.13s.15,.22,.15,.38c0,.14-.06,.31-.17,.51s-.28,.38-.51,.56-.52,.33-.86,.44-.74,.18-1.19,.18c-1.03,0-1.83-.29-2.4-.88s-.86-1.38-.86-2.38c0-.47,.07-.91,.21-1.32s.35-.75,.62-1.04,.6-.51,1-.67,.83-.23,1.31-.23c.62,0,1.16,.13,1.61,.4s.78,.6,1,1.02,.33,.84,.33,1.28c0,.4-.12,.66-.35,.78s-.55,.18-.97,.18Zm-3.13-.91h2.9c-.04-.55-.19-.96-.44-1.23s-.59-.41-1.01-.41-.73,.14-.98,.41-.41,.68-.47,1.22Z"/><path class="cls-1" d="M75.87,102.87v.19c.28-.37,.59-.64,.92-.82s.72-.26,1.15-.26,.8,.09,1.13,.28,.58,.44,.74,.78c.11,.2,.17,.41,.21,.63s.05,.52,.05,.87v2.98c0,.32-.07,.56-.22,.73s-.34,.25-.57,.25-.43-.08-.58-.25-.22-.41-.22-.72v-2.67c0-.53-.07-.93-.22-1.21s-.44-.42-.88-.42c-.29,0-.54,.08-.78,.25s-.41,.4-.52,.7c-.08,.24-.12,.68-.12,1.34v2c0,.32-.08,.57-.23,.73s-.34,.24-.58,.24-.42-.08-.57-.25-.22-.41-.22-.72v-4.62c0-.3,.07-.53,.2-.68s.31-.23,.54-.23c.14,0,.27,.03,.38,.1s.2,.17,.27,.3,.1,.29,.1,.49Z"/><path class="cls-1" d="M81.75,102.12h.18v-.96c0-.26,0-.46,.02-.61s.05-.27,.11-.38c.06-.11,.15-.2,.27-.27s.25-.1,.39-.1c.2,0,.39,.08,.55,.23,.11,.1,.18,.23,.21,.37s.04,.35,.04,.62v1.09h.59c.23,0,.4,.05,.52,.16s.18,.25,.18,.41c0,.21-.08,.37-.25,.45s-.41,.13-.73,.13h-.3v2.94c0,.25,0,.44,.03,.58s.06,.24,.14,.33,.2,.13,.37,.13c.09,0,.22-.02,.38-.05s.29-.05,.38-.05c.13,0,.25,.05,.35,.16s.16,.23,.16,.38c0,.26-.14,.46-.42,.59s-.69,.21-1.21,.21c-.5,0-.88-.08-1.14-.25s-.43-.4-.51-.7-.12-.69-.12-1.19v-3.07h-.21c-.23,0-.41-.05-.53-.16s-.18-.25-.18-.42,.06-.31,.19-.41,.31-.16,.55-.16Z"/><path class="cls-1" d="M89.95,107.59c-.39,.3-.76,.53-1.12,.68s-.77,.23-1.22,.23c-.41,0-.77-.08-1.08-.24s-.55-.38-.72-.66-.25-.58-.25-.9c0-.44,.14-.81,.42-1.12s.66-.52,1.14-.62c.1-.02,.35-.08,.76-.16s.75-.16,1.03-.23,.6-.15,.93-.25c-.02-.42-.1-.73-.25-.93s-.46-.3-.93-.3c-.41,0-.71,.06-.92,.17s-.38,.28-.53,.51-.25,.38-.31,.45-.19,.11-.39,.11c-.18,0-.33-.06-.47-.17s-.2-.26-.2-.44c0-.28,.1-.55,.3-.82s.51-.48,.93-.66,.95-.26,1.58-.26c.7,0,1.26,.08,1.66,.25s.69,.43,.85,.79,.25,.84,.25,1.43c0,.38,0,.69,0,.96s0,.55,0,.87c0,.3,.05,.61,.15,.94s.15,.54,.15,.63c0,.16-.08,.31-.23,.45s-.33,.2-.52,.2c-.16,0-.33-.08-.49-.23s-.33-.38-.51-.67Zm-.11-2.31c-.23,.09-.58,.18-1.02,.27s-.76,.17-.93,.21-.34,.13-.49,.26-.23,.31-.23,.55,.09,.45,.28,.62,.42,.25,.72,.25c.32,0,.61-.07,.88-.21s.46-.32,.59-.54c.14-.24,.22-.64,.22-1.2v-.23Z"/><path class="cls-1" d="M98.19,106.4c0,.44-.11,.82-.32,1.13s-.53,.55-.95,.71-.93,.24-1.53,.24-1.07-.09-1.48-.26-.71-.4-.91-.66-.29-.53-.29-.79c0-.18,.06-.33,.19-.45s.28-.19,.47-.19c.17,0,.3,.04,.39,.12s.18,.2,.26,.35c.16,.29,.36,.5,.59,.64s.54,.21,.93,.21c.32,0,.58-.07,.79-.21s.31-.31,.31-.49c0-.28-.11-.49-.32-.62s-.56-.25-1.05-.37c-.55-.14-1-.28-1.34-.43s-.62-.35-.83-.59-.31-.55-.31-.91c0-.32,.1-.62,.29-.91s.47-.51,.85-.68,.82-.25,1.35-.25c.41,0,.79,.04,1.12,.13s.61,.2,.83,.35,.39,.3,.5,.48,.17,.35,.17,.52c0,.18-.06,.33-.18,.45s-.3,.18-.52,.18c-.16,0-.3-.05-.42-.14s-.25-.23-.4-.42c-.12-.16-.26-.28-.43-.38s-.39-.14-.67-.14-.53,.06-.72,.18-.29,.28-.29,.46c0,.17,.07,.31,.21,.41s.33,.2,.57,.27,.57,.16,.98,.26c.5,.12,.9,.27,1.22,.43s.55,.37,.71,.59,.24,.49,.24,.78Z"/><path class="cls-1" d="M106.59,107.59c-.39,.3-.76,.53-1.12,.68s-.77,.23-1.22,.23c-.41,0-.77-.08-1.08-.24s-.55-.38-.72-.66-.25-.58-.25-.9c0-.44,.14-.81,.42-1.12s.66-.52,1.14-.62c.1-.02,.35-.08,.76-.16s.75-.16,1.03-.23,.6-.15,.93-.25c-.02-.42-.1-.73-.25-.93s-.46-.3-.93-.3c-.41,0-.71,.06-.92,.17s-.38,.28-.53,.51-.25,.38-.31,.45-.19,.11-.39,.11c-.18,0-.33-.06-.47-.17s-.2-.26-.2-.44c0-.28,.1-.55,.3-.82s.51-.48,.93-.66,.95-.26,1.58-.26c.7,0,1.26,.08,1.66,.25s.69,.43,.85,.79,.25,.84,.25,1.43c0,.38,0,.69,0,.96s0,.55,0,.87c0,.3,.05,.61,.15,.94s.15,.54,.15,.63c0,.16-.08,.31-.23,.45s-.33,.2-.52,.2c-.16,0-.33-.08-.49-.23s-.33-.38-.51-.67Zm-.11-2.31c-.23,.09-.58,.18-1.02,.27s-.76,.17-.93,.21-.34,.13-.49,.26-.23,.31-.23,.55,.09,.45,.28,.62,.42,.25,.72,.25c.32,0,.61-.07,.88-.21s.46-.32,.59-.54c.14-.24,.22-.64,.22-1.2v-.23Z"/><path class="cls-1" d="M51.39,115.05l3.35,5.06v-5.11c0-.33,.07-.58,.21-.75s.33-.25,.58-.25,.45,.08,.59,.25,.22,.42,.22,.75v6.76c0,.75-.31,1.13-.94,1.13-.16,0-.3-.02-.42-.07s-.24-.12-.35-.21-.21-.21-.3-.34-.19-.26-.28-.4l-3.26-5v5.03c0,.33-.08,.58-.23,.74s-.35,.25-.59,.25-.44-.08-.59-.25-.22-.42-.22-.74v-6.63c0-.28,.03-.5,.09-.66,.07-.18,.2-.32,.37-.43s.36-.17,.56-.17c.16,0,.29,.03,.4,.08s.21,.12,.29,.21,.17,.2,.26,.33,.18,.28,.27,.43Z"/><path class="cls-1" d="M62.17,121.99c-.39,.3-.76,.53-1.12,.68s-.77,.23-1.22,.23c-.41,0-.77-.08-1.08-.24s-.55-.38-.72-.66-.25-.58-.25-.9c0-.44,.14-.81,.42-1.12s.66-.52,1.14-.62c.1-.02,.35-.08,.76-.16s.75-.16,1.03-.23,.6-.15,.93-.25c-.02-.42-.1-.73-.25-.93s-.46-.3-.93-.3c-.41,0-.71,.06-.92,.17s-.38,.28-.53,.51-.25,.38-.31,.45-.19,.11-.39,.11c-.18,0-.33-.06-.47-.17s-.2-.26-.2-.44c0-.28,.1-.55,.3-.82s.51-.48,.93-.66,.95-.26,1.58-.26c.7,0,1.26,.08,1.66,.25s.69,.43,.85,.79,.25,.84,.25,1.43c0,.38,0,.69,0,.96s0,.55,0,.87c0,.3,.05,.61,.15,.94s.15,.54,.15,.63c0,.16-.08,.31-.23,.45s-.33,.2-.52,.2c-.16,0-.33-.08-.49-.23s-.33-.38-.51-.67Zm-.11-2.31c-.23,.09-.58,.18-1.02,.27s-.76,.17-.93,.21-.34,.13-.49,.26-.23,.31-.23,.55,.09,.45,.28,.62,.42,.25,.72,.25c.32,0,.61-.07,.88-.21s.46-.32,.59-.54c.14-.24,.22-.64,.22-1.2v-.23Z"/><path class="cls-1" d="M65.13,116.52h.38v-.48c0-.5,.06-.9,.19-1.19s.34-.51,.64-.64,.72-.2,1.25-.2c.93,0,1.4,.23,1.4,.69,0,.15-.05,.28-.15,.38s-.21,.16-.35,.16c-.06,0-.17-.01-.32-.04s-.28-.04-.39-.04c-.29,0-.47,.08-.56,.25s-.12,.41-.12,.73v.38h.39c.61,0,.91,.18,.91,.55,0,.26-.08,.43-.24,.5s-.39,.11-.67,.11h-.39v4.24c0,.32-.08,.56-.23,.72s-.34,.25-.58,.25-.42-.08-.57-.25-.23-.41-.23-.72v-4.24h-.44c-.24,0-.42-.05-.55-.16s-.19-.25-.19-.42c0-.38,.27-.57,.8-.57Z"/><path class="cls-1" d="M69.35,116.52h.18v-.96c0-.26,0-.46,.02-.61s.05-.27,.11-.38c.06-.11,.15-.2,.27-.27s.25-.1,.39-.1c.2,0,.39,.08,.55,.23,.11,.1,.18,.23,.21,.37s.04,.35,.04,.62v1.09h.59c.23,0,.4,.05,.52,.16s.18,.25,.18,.41c0,.21-.08,.37-.25,.45s-.41,.13-.73,.13h-.3v2.94c0,.25,0,.44,.03,.58s.06,.24,.14,.33,.2,.13,.37,.13c.09,0,.22-.02,.38-.05s.29-.05,.38-.05c.13,0,.25,.05,.35,.16s.16,.23,.16,.38c0,.26-.14,.46-.42,.59s-.69,.21-1.21,.21c-.5,0-.88-.08-1.14-.25s-.43-.4-.51-.7-.12-.69-.12-1.19v-3.07h-.21c-.23,0-.41-.05-.53-.16s-.18-.25-.18-.42,.06-.31,.19-.41,.31-.16,.55-.16Z"/><path class="cls-1" d="M77.55,121.99c-.39,.3-.76,.53-1.12,.68s-.77,.23-1.22,.23c-.41,0-.77-.08-1.08-.24s-.55-.38-.72-.66-.25-.58-.25-.9c0-.44,.14-.81,.42-1.12s.66-.52,1.14-.62c.1-.02,.35-.08,.76-.16s.75-.16,1.03-.23,.6-.15,.93-.25c-.02-.42-.1-.73-.25-.93s-.46-.3-.93-.3c-.41,0-.71,.06-.92,.17s-.38,.28-.53,.51-.25,.38-.31,.45-.19,.11-.39,.11c-.18,0-.33-.06-.47-.17s-.2-.26-.2-.44c0-.28,.1-.55,.3-.82s.51-.48,.93-.66,.95-.26,1.58-.26c.7,0,1.26,.08,1.66,.25s.69,.43,.85,.79,.25,.84,.25,1.43c0,.38,0,.69,0,.96s0,.55,0,.87c0,.3,.05,.61,.15,.94s.15,.54,.15,.63c0,.16-.08,.31-.23,.45s-.33,.2-.52,.2c-.16,0-.33-.08-.49-.23s-.33-.38-.51-.67Zm-.11-2.31c-.23,.09-.58,.18-1.02,.27s-.76,.17-.93,.21-.34,.13-.49,.26-.23,.31-.23,.55,.09,.45,.28,.62,.42,.25,.72,.25c.32,0,.61-.07,.88-.21s.46-.32,.59-.54c.14-.24,.22-.64,.22-1.2v-.23Z"/></g></svg>