<?xml version="1.0" encoding="UTF-8"?><svg id="Capa_1" xmlns="http://www.w3.org/2000/svg" viewBox="0 0 128 141"><defs><style>.cls-1{fill:#253786;}</style></defs><g><path class="cls-1" d="M91.61,47.88c-.22-.26-.74-.27-.95,0-.82,1.02-.28,2.35-1.95,2.5-1.34,.12-2.74-.21-4.07-.33-1.77-.16-3.32,.29-4.13,1.43-3.34-3.1-8.48-4.13-10.82,.31-.78-.65-1.71-1.07-2.87-1.05-.2,0-.39,.02-.59,.04-.13-.8-.9-1.49-1.37-2.17,.2-.12,.33-.32,.31-.58-.24-2.8-1.2-5.69-1.99-8.38-.12-.39-.24-.79-.37-1.19,.04-.12,.03-.26-.09-.36-.01-.01-.03-.03-.05-.04-.64-1.91-1.48-3.8-2.92-5.19-3.07-2.96-8.39,.41-11.43,1.71-.42,.18-.6,.88-.33,1.25,3.65,4.84,6.42,10.15,8.69,15.75,.15,.38,.54,.71,.98,.56,.4-.13,.79-.29,1.18-.45,0,.12,.01,.24,.07,.34,.34,.59,.64,1.19,.97,1.79-1.57,1.29-3.05,2.76-4.63,3.94-1.91-.65-3.91-1.05-5.82-1.16-2.98-.17-6.42,1.41-6.1,4.69-.2-.02-.26,.26-.44,.32,.14-.07,.19-.28,.08-.42-.01-.02-.03-.03-.04-.05-.19-.21-.52,.01-.45,.26,.05,.19,.11,.38,.17,.57-.94,.31-1.94,.33-3,.05-.5-.12-1.05,.34-.87,.87,.18,1.59-.19,2.68-1.09,3.29-.25-.13-.51-.25-.75-.39-.33-.19-.61,.31-.29,.5,.13,.08,.26,.15,.39,.22-.23,.08-.48,.15-.76,.19-.56,.18-.72,.97-.17,1.28,.44,.31,.78,.62,1.02,.93-.07,.16-.04,.37,.15,.45,.06,.03,.12,.05,.17,.08,.33,.74,.14,1.49-.58,2.26-.13,.2-.11,.48,0,.69,.76,1.01,.96,2.17,.6,3.48-.18,.43,.26,.84,.66,.86,2.26,.12,3.3,1.05,3.06,3.32-.06,.61,.82,.78,1.11,.35,.08,.04,.17,.06,.27,.05,2.01-.29,3.28,.39,3.68,2.42,.08,.41,.68,.56,.95,.25,1.55-1.76,3.52-1.34,4.85,.35,.18,.23,.66,.23,.84,0,.98-1.26,2.21-1.3,3.52-1.95,.23-.11,.29-.33,.26-.53,.62,.59,1.24,1.14,1.88,1.64,.61,.48,1.68-.07,1.4-.79,.06,0,.11,.02,.18,.02,4.73-.43,6.21-4.9,5.88-9.65,0,0,.01,0,.02,0,3.4-.77,6.73-2.12,8.56-5.25,.62-1.06,.84-2.21,.8-3.37,2.9-.08,6.63-.86,7.9-3.8,1.04-2.4-.1-5.12-1.62-7.04-.05-.06-.1-.11-.14-.17,.42-.62,1.09-.91,2.18-.87,1.49,.05,2.94,.44,4.43,.54,2.08,.14,5.49-2.01,3.48-4.34Zm-26.63,3.09c-1.61,.39-3.03,1.23-4.36,2.25-.12-.4-.25-.8-.38-1.19,1.36-.6,2.62-1.35,3.74-2.32,.29,.44,.63,.91,1,1.27Zm-5.02-14.91c-1.48-.88-3.06-1.6-4.62-2.33,1.77-.29,3.4,.16,4.62,2.33Zm-5.67-2.08s0,0,0,0c2.19,1.13,4.34,2.27,6.39,3.61,.21,.54,.4,1.08,.57,1.63-2.99-1.39-5.92-2.49-8.47-4.69,.51-.21,1.01-.41,1.51-.56Zm-2.11,.81c2.56,2.45,5.93,4.44,9.35,5.42,.1,.4,.2,.8,.3,1.2-3.5-2.1-7.05-4.24-10.66-6.15,.33-.16,.67-.32,1.01-.47Zm-2,.94c.1-.05,.21-.1,.31-.15,3.78,2.28,7.47,5.15,11.56,6.81,.08,.35,.16,.7,.24,1.04-3.5-1.93-7.12-3.67-10.64-5.58-.48-.72-.96-1.43-1.47-2.13Zm2.3,3.44c3.22,2.06,6.55,4.2,10.09,5.43,.06,.23,.11,.46,.18,.69-2.98-1.88-6.28-3.54-9.52-4.92-.24-.4-.5-.79-.75-1.19Zm2.55,4.44c-.39-.77-.81-1.53-1.24-2.28,3.1,1.71,6.05,3.8,9.3,5.1,.19,.59,.41,1.17,.67,1.74-.03,.02-.07,.03-.1,.06-.05,.04-.09,.08-.14,.12-1.37-.75-2.86-1.32-4.25-2.04-1.3-.68-2.59-1.38-3.91-2.02-.11-.22-.22-.45-.33-.67Zm.85,1.72c2.25,1.35,4.55,2.98,7,3.57-.44,.35-.88,.69-1.35,.99-1.55-.8-3.12-1.53-4.64-2.37-.31-.74-.65-1.46-1-2.18Zm3.73,5.6c-.02-.22-.18-.41-.48-.41-1.37,0-1.6-1.09-1.97-2.24,1.17,.76,2.39,1.48,3.66,2.02-.39,.22-.8,.43-1.21,.63Zm-13.75,18.7c-.44,2.19,1.57,4.63,4.08,5.45,.56,.18,1.14,.26,1.72,.26,.64,.83,1.3,1.65,1.98,2.44-.38,0-.74,.02-1.1,.02-.31-.13-.61-.25-.91-.39-.27-.12-.51,.11-.49,.33-.6-.05-1.2-.14-1.85-.36-1.84-.61-3.4-1.93-4.67-3.35-2.56-2.84-2.75-5.95-.74-8.51,.28,.15,.55,.3,.84,.42,.06,.03,.12,.01,.16,0,.35,.48,.7,.96,1.05,1.43-.19,.65-.23,1.4-.08,2.24Zm5.42-3.62c1.64,.74,3.26,1.61,4.91,2.34,.16,.31,.23,.63,.26,.94-.98-.3-1.98-.58-2.94-.95-1.55-.6-3.01-1.36-4.48-2.13,.52-.35,1.18-.57,2.06-.6,0,0,.02,0,.02,0-.04,.16,0,.33,.16,.4Zm5.06,4.37c-.04,.12-.07,.24-.12,.35-2.45-1.07-5-1.79-7.27-3.3-.25-.17-.48,.1-.43,.33-.05-.07-.1-.14-.15-.21,0-.01,.02-.03,.03-.04,.16-.21-.05-.44-.27-.45,.15-.21,.31-.4,.49-.57,.02,.02,.02,.05,.05,.07,1.96,1.51,4.93,3.12,7.66,3.8Zm-6-.13c-.56-.72-1.1-1.45-1.62-2.21-.02-.02-.03-.05-.05-.07,2.12,1.49,4.66,2.66,7.18,3.44-.2,.29-.43,.56-.7,.81-1.53-.76-3.18-1.44-4.81-1.98Zm4.18,2.5c-.47,.34-.97,.61-1.47,.79-.75-.87-1.49-1.74-2.2-2.64,1.23,.6,2.42,1.31,3.67,1.85Zm-4.18,.84c-.94-.29-1.8-.84-2.46-1.55-.77-.82-.79-1.75-.5-2.65,.92,1.35,1.91,2.77,2.96,4.2Zm-7.31-10.69c.16,.35,.34,.7,.54,1.04-.17,.1-.33,.22-.48,.33-.43-.28-.86-.58-1.28-.87,.42-.11,.82-.27,1.23-.5Zm-2.66,.63c.23,.01,.44,0,.65,0,.51,.4,1.02,.81,1.55,1.19-.32,.32-.59,.66-.82,1.03-.51-.21-1.01-.44-1.5-.69,.13-.46,.18-.96,.11-1.52Zm2.04,10.26c-1.24-.74-2.48-1.48-3.71-2.23,.03-.27,.1-.54,.22-.83,.07-.16,.11-.32,.14-.48,.74,.41,1.47,.83,2.25,1.14,.23,.75,.55,1.48,.96,2.17,.04,.07,.1,.15,.15,.23Zm-2.36-8.22c.45,.28,.92,.53,1.4,.74-.22,.49-.37,1-.45,1.54-.64-.37-1.3-.7-1.97-1.02,.44-.36,.79-.78,1.02-1.26Zm-2.16,1.97c.18-.09,.34-.18,.5-.27,.84,.46,1.68,.9,2.53,1.32-.02,.6,.02,1.21,.14,1.83-.66-.37-1.33-.73-2.02-1.07-.14-.7-.6-1.31-1.15-1.81Zm1.11,7.92c.03-.17,.04-.34,.05-.5,.35,.29,.73,.57,1.12,.83-.36-.14-.74-.25-1.17-.33Zm13.47,6.68c-1.59-1.66-3.7-1.94-5.42-.51-.77-1.87-2.45-2.64-4.61-2.03,.14-1.33-.22-2.31-.94-3,.44,.26,.87,.5,1.27,.74,2.04,1.24,4.27,2.71,6.59,3.34,.4,.11,.59-.42,.27-.64-1.8-1.23-3.92-2.05-5.82-3.11-1.65-.92-3.2-2.13-4.85-3.05-.09-.53-.23-1.03-.28-1.56,2,1.39,4.04,2.83,6.15,4.2,1.25,1.09,2.75,2.03,4.29,2.58,1.51,.83,3.05,1.55,4.62,2.16-.45,.22-.88,.49-1.27,.87Zm3.51-1.65c-.48,.15-.93,.28-1.35,.42-.75-.44-1.5-.87-2.25-1.31,.48-.04,.94-.14,1.4-.3,.78,.41,1.56,.8,2.35,1.17-.05,0-.09,0-.14,.01Zm3.93-.25c-.34,.12-.52,.43-.55,.75-1.63-2.13-3.43-4.14-5.21-6.17,1.79-.76,3.24-2.29,3.71-4.17,.2,.02,.41,.06,.6,.07,.44,.02,.45-.57,.1-.71-.18-.07-.37-.14-.56-.2,.01-.19,.04-.38,.03-.57,0-.05-.02-.1-.02-.15,0,0,0,0,.01,0,.44,.15,.72-.53,.31-.74-.16-.08-.33-.16-.49-.24-1.18-4.25-8.02-5.21-10.85-2.45-.45-.6-.91-1.19-1.38-1.78-.02-.02-.04-.05-.06-.07,.06-.25-.16-.54-.43-.54-.3-.38-.61-.76-.92-1.14,.04-.03,.08-.06,.13-.09,.27-.2,.21-.52,.01-.66,2.52-6.16,12.19-1.78,15.98,1.22,4.57,3.62,5.97,15.4-.41,17.64Zm13.19-14.18c-1.18,2.73-4.65,3.73-7.29,4.41-.59-3.78-2.22-7.46-4.18-9.19-1.46-1.29-3.23-2.31-5.11-3.08,2.03-1.38,3.86-3.03,5.87-4.44,4.1-2.87,6.76-.83,8.72,2.88,1.53,2.91,3.45,6.06,2,9.41Zm2.05-4.24c-.17-.77-.44-1.53-.75-2.27,.71,.43,1.44,.82,2.19,1.19,.49,.24,1,.5,1.52,.7-1.05,.23-2.12,.31-2.96,.38Zm4.18-.73s-.01-.02-.02-.03c-.59-.45-1.38-.64-2.07-.91-1.01-.4-2-.86-2.95-1.39-.09-.05-.17-.05-.25-.03-.33-.71-.69-1.4-1.04-2.03-.06-.11-.12-.22-.18-.33,2.44,1.58,5.1,3.03,7.83,4.02-.38,.29-.83,.52-1.31,.7Zm2-1.4c-3.05-1.46-6.19-2.63-9.1-4.39-.3-.55-.62-1.1-.97-1.63,3.37,1.69,6.73,4.6,10.44,5.34-.1,.25-.21,.48-.36,.69Zm.2-3.78c-2.97-1.63-6.48-2.57-9.55-3.87-.43-.18-.81,.43-.37,.64,3.34,1.58,6.78,3.39,10.26,4.64,.02,.22,.05,.44,.03,.67-1.57-.68-3.17-1.28-4.71-2.09-2.06-1.1-4.06-2.28-6.22-3.19-.11-.04-.21-.04-.3,0,2.33-3.78,6.54-2.29,9.23,.67,0,.03,0,.06,0,.09-2.08-1.19-4.46-2.05-6.67-2.55-.59-.13-.85,.76-.25,.92,3.14,.83,5.58,2.67,8.47,3.98,.02,.04,.04,.08,.05,.11Z"/><path class="cls-1" d="M52.14,60.39c-.33-.03-.4,.51-.08,.58,4.01,.91,7.02,3.77,8.59,7.52,1.62,3.86,.34,7.11-2.69,9.68-.66,.56,.18,1.51,.88,1.14,9.25-4.88,1.29-18.1-6.7-18.92Z"/><path class="cls-1" d="M71.03,63.76c-.88,1.58-2.14,2.77-3.79,3.52-.48,.22-.13,1.03,.36,.85,1.87-.71,3.75-1.99,4.37-3.98,.17-.56-.65-.9-.93-.39Z"/><path class="cls-1" d="M69.74,59.79c-.74,1.45-1.9,2.24-3.4,2.79-.46,.16-.42,.96,.12,.9,1.75-.18,3.93-1.58,4.12-3.46,.05-.45-.65-.62-.85-.23Z"/><path class="cls-1" d="M68.55,56.59c-1.73,.99-3.22,1.89-5.21,2.28-.65,.13-.36,1.08,.27,.98,1.98-.32,4.12-.99,5.55-2.47,.4-.41-.11-1.07-.61-.79Z"/><path class="cls-1" d="M67.54,53.23c-.88,.46-1.64,1.17-2.43,1.78-.92,.71-1.89,1.34-2.9,1.89-.6,.33-.07,1.19,.53,.9,1.88-.91,4.07-2.13,5.44-3.74,.39-.45-.09-1.11-.64-.83Z"/></g><g><path class="cls-1" d="M26.91,100.66v2.46h3.76v-2.46c0-.35,.08-.62,.24-.79s.37-.26,.62-.26,.47,.09,.64,.26,.24,.44,.24,.79v6.77c0,.36-.08,.62-.25,.8s-.38,.26-.63,.26-.47-.09-.63-.27-.23-.44-.23-.79v-2.89h-3.76v2.89c0,.36-.08,.62-.25,.8s-.38,.26-.63,.26-.47-.09-.63-.27-.23-.44-.23-.79v-6.77c0-.35,.08-.62,.23-.79s.36-.26,.63-.26,.47,.09,.64,.26,.24,.44,.24,.79Z"/><path class="cls-1" d="M38.63,105.63h-3.13c0,.36,.08,.68,.22,.96s.33,.49,.57,.63,.5,.21,.78,.21c.19,0,.37-.02,.52-.07s.31-.12,.46-.21,.29-.2,.41-.31,.29-.26,.49-.45c.08-.07,.2-.11,.35-.11,.16,0,.3,.04,.4,.13s.15,.22,.15,.38c0,.14-.06,.31-.17,.51s-.28,.38-.51,.56-.52,.33-.86,.44-.74,.18-1.19,.18c-1.03,0-1.83-.29-2.4-.88s-.86-1.38-.86-2.38c0-.47,.07-.91,.21-1.32s.35-.75,.62-1.04,.6-.51,1-.67,.83-.23,1.31-.23c.62,0,1.16,.13,1.61,.4s.78,.6,1,1.02,.33,.84,.33,1.28c0,.4-.12,.66-.35,.78s-.55,.18-.97,.18Zm-3.13-.91h2.9c-.04-.55-.19-.96-.44-1.23s-.59-.41-1.01-.41-.73,.14-.98,.41-.41,.68-.47,1.22Z"/><path class="cls-1" d="M42.88,106.18v1.34c0,.32-.08,.57-.23,.73s-.35,.24-.58,.24-.42-.08-.57-.25-.22-.41-.22-.73v-4.45c0-.72,.26-1.08,.78-1.08,.27,0,.46,.08,.57,.25s.18,.42,.19,.74c.19-.33,.39-.58,.59-.74s.47-.25,.81-.25,.66,.08,.98,.25,.47,.39,.47,.67c0,.2-.07,.36-.2,.48s-.28,.19-.44,.19c-.06,0-.2-.04-.42-.11s-.42-.11-.59-.11c-.23,0-.43,.06-.57,.18s-.26,.31-.35,.55-.14,.53-.17,.86-.05,.74-.05,1.22Z"/><path class="cls-1" d="M47.98,106.18v1.34c0,.32-.08,.57-.23,.73s-.35,.24-.58,.24-.42-.08-.57-.25-.22-.41-.22-.73v-4.45c0-.72,.26-1.08,.78-1.08,.27,0,.46,.08,.57,.25s.18,.42,.19,.74c.19-.33,.39-.58,.59-.74s.47-.25,.81-.25,.66,.08,.98,.25,.47,.39,.47,.67c0,.2-.07,.36-.2,.48s-.28,.19-.44,.19c-.06,0-.2-.04-.42-.11s-.42-.11-.59-.11c-.23,0-.43,.06-.57,.18s-.26,.31-.35,.55-.14,.53-.17,.86-.05,.74-.05,1.22Z"/><path class="cls-1" d="M55.39,107.59c-.39,.3-.76,.53-1.12,.68s-.77,.23-1.22,.23c-.41,0-.77-.08-1.08-.24s-.55-.38-.72-.66-.25-.58-.25-.9c0-.44,.14-.81,.42-1.12s.66-.52,1.14-.62c.1-.02,.35-.08,.76-.16s.75-.16,1.03-.23,.6-.15,.93-.25c-.02-.42-.1-.73-.25-.93s-.46-.3-.93-.3c-.41,0-.71,.06-.92,.17s-.38,.28-.53,.51-.25,.38-.31,.45-.19,.11-.39,.11c-.18,0-.33-.06-.47-.17s-.2-.26-.2-.44c0-.28,.1-.55,.3-.82s.51-.48,.93-.66,.95-.26,1.58-.26c.7,0,1.26,.08,1.66,.25s.69,.43,.85,.79,.25,.84,.25,1.43c0,.38,0,.69,0,.96s0,.55,0,.87c0,.3,.05,.61,.15,.94s.15,.54,.15,.63c0,.16-.08,.31-.23,.45s-.33,.2-.52,.2c-.16,0-.33-.08-.49-.23s-.33-.38-.51-.67Zm-.11-2.31c-.23,.09-.58,.18-1.02,.27s-.76,.17-.93,.21-.34,.13-.49,.26-.23,.31-.23,.55,.09,.45,.28,.62,.42,.25,.72,.25c.32,0,.61-.07,.88-.21s.46-.32,.59-.54c.14-.24,.22-.64,.22-1.2v-.23Z"/><path class="cls-1" d="M63.8,105.35v2.13c0,.34-.08,.59-.23,.76s-.35,.25-.6,.25-.44-.08-.59-.25-.23-.42-.23-.76v-2.55c0-.4-.01-.71-.04-.94s-.1-.41-.22-.55-.31-.21-.57-.21c-.52,0-.87,.18-1.03,.54s-.25,.88-.25,1.55v2.16c0,.33-.08,.58-.23,.75s-.35,.25-.59,.25-.44-.08-.59-.25-.23-.42-.23-.75v-4.58c0-.3,.07-.53,.21-.69s.32-.23,.55-.23,.4,.07,.55,.22,.22,.35,.22,.61v.15c.28-.33,.57-.58,.89-.73s.67-.23,1.05-.23,.75,.08,1.04,.24,.53,.4,.71,.73c.27-.33,.56-.57,.87-.73s.65-.24,1.03-.24c.44,0,.81,.09,1.13,.26s.55,.42,.71,.74c.14,.29,.21,.74,.21,1.37v3.12c0,.34-.08,.59-.23,.76s-.35,.25-.6,.25-.44-.08-.59-.25-.23-.42-.23-.75v-2.69c0-.34-.01-.62-.04-.83s-.11-.38-.24-.52-.32-.21-.59-.21c-.21,0-.41,.06-.6,.19s-.34,.29-.44,.5c-.12,.27-.18,.75-.18,1.43Z"/><path class="cls-1" d="M69.9,101.24c-.22,0-.41-.07-.57-.21s-.24-.33-.24-.58c0-.23,.08-.41,.24-.56s.35-.22,.57-.22,.39,.07,.55,.2,.24,.33,.24,.58-.08,.44-.23,.58-.34,.21-.56,.21Zm.79,1.65v4.62c0,.32-.08,.56-.23,.73s-.35,.25-.58,.25-.42-.08-.57-.25-.22-.41-.22-.72v-4.58c0-.32,.07-.55,.22-.71s.34-.24,.57-.24,.43,.08,.58,.24,.23,.38,.23,.67Z"/><path class="cls-1" d="M76.81,105.63h-3.13c0,.36,.08,.68,.22,.96s.33,.49,.57,.63,.5,.21,.78,.21c.19,0,.37-.02,.52-.07s.31-.12,.46-.21,.29-.2,.41-.31,.29-.26,.49-.45c.08-.07,.2-.11,.35-.11,.16,0,.3,.04,.4,.13s.15,.22,.15,.38c0,.14-.06,.31-.17,.51s-.28,.38-.51,.56-.52,.33-.86,.44-.74,.18-1.19,.18c-1.03,0-1.83-.29-2.4-.88s-.86-1.38-.86-2.38c0-.47,.07-.91,.21-1.32s.35-.75,.62-1.04,.6-.51,1-.67,.83-.23,1.31-.23c.62,0,1.16,.13,1.61,.4s.78,.6,1,1.02,.33,.84,.33,1.28c0,.4-.12,.66-.35,.78s-.55,.18-.97,.18Zm-3.13-.91h2.9c-.04-.55-.19-.96-.44-1.23s-.59-.41-1.01-.41-.73,.14-.98,.41-.41,.68-.47,1.22Z"/><path class="cls-1" d="M80.93,102.87v.19c.28-.37,.59-.64,.92-.82s.72-.26,1.15-.26,.8,.09,1.13,.28,.58,.44,.74,.78c.11,.2,.17,.41,.21,.63s.05,.52,.05,.87v2.98c0,.32-.07,.56-.22,.73s-.34,.25-.57,.25-.43-.08-.58-.25-.22-.41-.22-.72v-2.67c0-.53-.07-.93-.22-1.21s-.44-.42-.88-.42c-.29,0-.54,.08-.78,.25s-.41,.4-.52,.7c-.08,.24-.12,.68-.12,1.34v2c0,.32-.08,.57-.23,.73s-.34,.24-.58,.24-.42-.08-.57-.25-.22-.41-.22-.72v-4.62c0-.3,.07-.53,.2-.68s.31-.23,.54-.23c.14,0,.27,.03,.38,.1s.2,.17,.27,.3,.1,.29,.1,.49Z"/><path class="cls-1" d="M86.81,102.12h.18v-.96c0-.26,0-.46,.02-.61s.05-.27,.11-.38c.06-.11,.15-.2,.27-.27s.25-.1,.39-.1c.2,0,.39,.08,.55,.23,.11,.1,.18,.23,.21,.37s.04,.35,.04,.62v1.09h.59c.23,0,.4,.05,.52,.16s.18,.25,.18,.41c0,.21-.08,.37-.25,.45s-.41,.13-.73,.13h-.3v2.94c0,.25,0,.44,.03,.58s.06,.24,.14,.33,.2,.13,.37,.13c.09,0,.22-.02,.38-.05s.29-.05,.38-.05c.13,0,.25,.05,.35,.16s.16,.23,.16,.38c0,.26-.14,.46-.42,.59s-.69,.21-1.21,.21c-.5,0-.88-.08-1.14-.25s-.43-.4-.51-.7-.12-.69-.12-1.19v-3.07h-.21c-.23,0-.41-.05-.53-.16s-.18-.25-.18-.42,.06-.31,.19-.41,.31-.16,.55-.16Z"/><path class="cls-1" d="M95.02,107.59c-.39,.3-.76,.53-1.12,.68s-.77,.23-1.22,.23c-.41,0-.77-.08-1.08-.24s-.55-.38-.72-.66-.25-.58-.25-.9c0-.44,.14-.81,.42-1.12s.66-.52,1.14-.62c.1-.02,.35-.08,.76-.16s.75-.16,1.03-.23,.6-.15,.93-.25c-.02-.42-.1-.73-.25-.93s-.46-.3-.93-.3c-.41,0-.71,.06-.92,.17s-.38,.28-.53,.51-.25,.38-.31,.45-.19,.11-.39,.11c-.18,0-.33-.06-.47-.17s-.2-.26-.2-.44c0-.28,.1-.55,.3-.82s.51-.48,.93-.66,.95-.26,1.58-.26c.7,0,1.26,.08,1.66,.25s.69,.43,.85,.79,.25,.84,.25,1.43c0,.38,0,.69,0,.96s0,.55,0,.87c0,.3,.05,.61,.15,.94s.15,.54,.15,.63c0,.16-.08,.31-.23,.45s-.33,.2-.52,.2c-.16,0-.33-.08-.49-.23s-.33-.38-.51-.67Zm-.11-2.31c-.23,.09-.58,.18-1.02,.27s-.76,.17-.93,.21-.34,.13-.49,.26-.23,.31-.23,.55,.09,.45,.28,.62,.42,.25,.72,.25c.32,0,.61-.07,.88-.21s.46-.32,.59-.54c.14-.24,.22-.64,.22-1.2v-.23Z"/><path class="cls-1" d="M103.25,106.4c0,.44-.11,.82-.32,1.13s-.53,.55-.95,.71-.93,.24-1.53,.24-1.07-.09-1.48-.26-.71-.4-.91-.66-.29-.53-.29-.79c0-.18,.06-.33,.19-.45s.28-.19,.47-.19c.17,0,.3,.04,.39,.12s.18,.2,.26,.35c.16,.29,.36,.5,.59,.64s.54,.21,.93,.21c.32,0,.58-.07,.79-.21s.31-.31,.31-.49c0-.28-.11-.49-.32-.62s-.56-.25-1.05-.37c-.55-.14-1-.28-1.34-.43s-.62-.35-.83-.59-.31-.55-.31-.91c0-.32,.1-.62,.29-.91s.47-.51,.85-.68,.82-.25,1.35-.25c.41,0,.79,.04,1.12,.13s.61,.2,.83,.35,.39,.3,.5,.48,.17,.35,.17,.52c0,.18-.06,.33-.18,.45s-.3,.18-.52,.18c-.16,0-.3-.05-.42-.14s-.25-.23-.4-.42c-.12-.16-.26-.28-.43-.38s-.39-.14-.67-.14-.53,.06-.72,.18-.29,.28-.29,.46c0,.17,.07,.31,.21,.41s.33,.2,.57,.27,.57,.16,.98,.26c.5,.12,.9,.27,1.22,.43s.55,.37,.71,.59,.24,.49,.24,.78Z"/><path class="cls-1" d="M41.08,115.49h-3.92v2.11h3.61c.27,0,.46,.06,.59,.18s.2,.28,.2,.47-.06,.35-.19,.48-.33,.18-.6,.18h-3.61v2.44h4.05c.27,0,.48,.06,.62,.19s.21,.3,.21,.51-.07,.37-.21,.5-.34,.19-.62,.19h-4.73c-.38,0-.65-.08-.82-.25s-.25-.44-.25-.81v-6.46c0-.25,.04-.45,.11-.61s.19-.27,.35-.35,.36-.11,.61-.11h4.59c.28,0,.48,.06,.62,.18s.2,.28,.2,.48-.07,.37-.2,.49-.34,.18-.62,.18Z"/><path class="cls-1" d="M43.31,121.92v-6.94c0-.32,.07-.56,.21-.73s.33-.25,.58-.25,.44,.08,.59,.24,.22,.41,.22,.73v6.94c0,.32-.08,.57-.23,.73s-.34,.24-.58,.24-.42-.08-.57-.25-.22-.41-.22-.72Z"/><path class="cls-1" d="M51.03,120.03h-3.13c0,.36,.08,.68,.22,.96s.33,.49,.57,.63,.5,.21,.78,.21c.19,0,.37-.02,.52-.07s.31-.12,.46-.21,.29-.2,.41-.31,.29-.26,.49-.45c.08-.07,.2-.11,.35-.11,.16,0,.3,.04,.4,.13s.15,.22,.15,.38c0,.14-.06,.31-.17,.51s-.28,.38-.51,.56-.52,.33-.86,.44-.74,.18-1.19,.18c-1.03,0-1.83-.29-2.4-.88s-.86-1.38-.86-2.38c0-.47,.07-.91,.21-1.32s.35-.75,.62-1.04,.6-.51,1-.67,.83-.23,1.31-.23c.62,0,1.16,.13,1.61,.4s.78,.6,1,1.02,.33,.84,.33,1.28c0,.4-.12,.66-.35,.78s-.55,.18-.97,.18Zm-3.13-.91h2.9c-.04-.55-.19-.96-.44-1.23s-.59-.41-1.01-.41-.73,.14-.98,.41-.41,.68-.47,1.22Zm1.64-5.03h.79c.2,0,.3,.03,.3,.09,0,.03-.11,.16-.33,.38s-.44,.44-.66,.64-.38,.33-.46,.37c-.22,.11-.46,.17-.71,.17-.17,0-.25-.05-.25-.15,0-.07,.05-.18,.15-.35l.26-.49c.15-.29,.29-.47,.4-.54s.29-.12,.52-.12Z"/><path class="cls-1" d="M59.43,120.91c0,.2-.06,.41-.18,.64s-.3,.44-.54,.65-.55,.37-.92,.5-.79,.19-1.25,.19c-.99,0-1.76-.29-2.31-.86s-.83-1.35-.83-2.32c0-.66,.13-1.24,.38-1.74s.62-.89,1.1-1.17,1.05-.41,1.72-.41c.41,0,.79,.06,1.14,.18s.64,.28,.88,.47,.42,.4,.55,.61,.19,.42,.19,.61-.07,.35-.21,.49-.32,.2-.52,.2c-.13,0-.24-.03-.33-.1s-.19-.18-.3-.33c-.2-.3-.4-.52-.61-.67s-.48-.22-.81-.22c-.47,0-.85,.18-1.14,.55s-.43,.87-.43,1.51c0,.3,.04,.58,.11,.83s.18,.47,.32,.64,.31,.31,.51,.4,.42,.14,.66,.14c.32,0,.59-.07,.82-.22s.43-.38,.61-.68c.1-.18,.2-.32,.32-.42s.25-.15,.42-.15c.2,0,.36,.07,.49,.22s.19,.31,.19,.47Z"/><path class="cls-1" d="M60.91,116.52h.18v-.96c0-.26,0-.46,.02-.61s.05-.27,.11-.38c.06-.11,.15-.2,.27-.27s.25-.1,.39-.1c.2,0,.39,.08,.55,.23,.11,.1,.18,.23,.21,.37s.04,.35,.04,.62v1.09h.59c.23,0,.4,.05,.52,.16s.18,.25,.18,.41c0,.21-.08,.37-.25,.45s-.41,.13-.73,.13h-.3v2.94c0,.25,0,.44,.03,.58s.06,.24,.14,.33,.2,.13,.37,.13c.09,0,.22-.02,.38-.05s.29-.05,.38-.05c.13,0,.25,.05,.35,.16s.16,.23,.16,.38c0,.26-.14,.46-.42,.59s-.69,.21-1.21,.21c-.5,0-.88-.08-1.14-.25s-.43-.4-.51-.7-.12-.69-.12-1.19v-3.07h-.21c-.23,0-.41-.05-.53-.16s-.18-.25-.18-.42,.06-.31,.19-.41,.31-.16,.55-.16Z"/><path class="cls-1" d="M66.66,120.58v1.34c0,.32-.08,.57-.23,.73s-.35,.24-.58,.24-.42-.08-.57-.25-.22-.41-.22-.73v-4.45c0-.72,.26-1.08,.78-1.08,.27,0,.46,.08,.57,.25s.18,.42,.19,.74c.19-.33,.39-.58,.59-.74s.47-.25,.81-.25,.66,.08,.98,.25,.47,.39,.47,.67c0,.2-.07,.36-.2,.48s-.28,.19-.44,.19c-.06,0-.2-.04-.42-.11s-.42-.11-.59-.11c-.23,0-.43,.06-.57,.18s-.26,.31-.35,.55-.14,.53-.17,.86-.05,.74-.05,1.22Z"/><path class="cls-1" d="M71.14,115.64c-.22,0-.41-.07-.57-.21s-.24-.33-.24-.58c0-.23,.08-.41,.24-.56s.35-.22,.57-.22,.39,.07,.55,.2,.24,.33,.24,.58-.08,.44-.23,.58-.34,.21-.56,.21Zm.79,1.65v4.62c0,.32-.08,.56-.23,.73s-.35,.25-.58,.25-.42-.08-.57-.25-.22-.41-.22-.72v-4.58c0-.32,.07-.55,.22-.71s.34-.24,.57-.24,.43,.08,.58,.24,.23,.38,.23,.67Z"/><path class="cls-1" d="M79.32,120.91c0,.2-.06,.41-.18,.64s-.3,.44-.54,.65-.55,.37-.92,.5-.79,.19-1.25,.19c-.99,0-1.76-.29-2.31-.86s-.83-1.35-.83-2.32c0-.66,.13-1.24,.38-1.74s.62-.89,1.1-1.17,1.05-.41,1.72-.41c.41,0,.79,.06,1.14,.18s.64,.28,.88,.47,.42,.4,.55,.61,.19,.42,.19,.61-.07,.35-.21,.49-.32,.2-.52,.2c-.13,0-.24-.03-.33-.1s-.19-.18-.3-.33c-.2-.3-.4-.52-.61-.67s-.48-.22-.81-.22c-.47,0-.85,.18-1.14,.55s-.43,.87-.43,1.51c0,.3,.04,.58,.11,.83s.18,.47,.32,.64,.31,.31,.51,.4,.42,.14,.66,.14c.32,0,.59-.07,.82-.22s.43-.38,.61-.68c.1-.18,.2-.32,.32-.42s.25-.15,.42-.15c.2,0,.36,.07,.49,.22s.19,.31,.19,.47Z"/><path class="cls-1" d="M84.75,121.99c-.39,.3-.76,.53-1.12,.68s-.77,.23-1.22,.23c-.41,0-.77-.08-1.08-.24s-.55-.38-.72-.66-.25-.58-.25-.9c0-.44,.14-.81,.42-1.12s.66-.52,1.14-.62c.1-.02,.35-.08,.76-.16s.75-.16,1.03-.23,.6-.15,.93-.25c-.02-.42-.1-.73-.25-.93s-.46-.3-.93-.3c-.41,0-.71,.06-.92,.17s-.38,.28-.53,.51-.25,.38-.31,.45-.19,.11-.39,.11c-.18,0-.33-.06-.47-.17s-.2-.26-.2-.44c0-.28,.1-.55,.3-.82s.51-.48,.93-.66,.95-.26,1.58-.26c.7,0,1.26,.08,1.66,.25s.69,.43,.85,.79,.25,.84,.25,1.43c0,.38,0,.69,0,.96s0,.55,0,.87c0,.3,.05,.61,.15,.94s.15,.54,.15,.63c0,.16-.08,.31-.23,.45s-.33,.2-.52,.2c-.16,0-.33-.08-.49-.23s-.33-.38-.51-.67Zm-.11-2.31c-.23,.09-.58,.18-1.02,.27s-.76,.17-.93,.21-.34,.13-.49,.26-.23,.31-.23,.55,.09,.45,.28,.62,.42,.25,.72,.25c.32,0,.61-.07,.88-.21s.46-.32,.59-.54c.14-.24,.22-.64,.22-1.2v-.23Z"/><path class="cls-1" d="M92.99,120.8c0,.44-.11,.82-.32,1.13s-.53,.55-.95,.71-.93,.24-1.53,.24-1.07-.09-1.48-.26-.71-.4-.91-.66-.29-.53-.29-.79c0-.18,.06-.33,.19-.45s.28-.19,.47-.19c.17,0,.3,.04,.39,.12s.18,.2,.26,.35c.16,.29,.36,.5,.59,.64s.54,.21,.93,.21c.32,0,.58-.07,.79-.21s.31-.31,.31-.49c0-.28-.11-.49-.32-.62s-.56-.25-1.05-.37c-.55-.14-1-.28-1.34-.43s-.62-.35-.83-.59-.31-.55-.31-.91c0-.32,.1-.62,.29-.91s.47-.51,.85-.68,.82-.25,1.35-.25c.41,0,.79,.04,1.12,.13s.61,.2,.83,.35,.39,.3,.5,.48,.17,.35,.17,.52c0,.18-.06,.33-.18,.45s-.3,.18-.52,.18c-.16,0-.3-.05-.42-.14s-.25-.23-.4-.42c-.12-.16-.26-.28-.43-.38s-.39-.14-.67-.14-.53,.06-.72,.18-.29,.28-.29,.46c0,.17,.07,.31,.21,.41s.33,.2,.57,.27,.57,.16,.98,.26c.5,.12,.9,.27,1.22,.43s.55,.37,.71,.59,.24,.49,.24,.78Z"/></g></svg>