<?xml version="1.0" encoding="UTF-8"?><svg id="Capa_1" xmlns="http://www.w3.org/2000/svg" viewBox="0 0 128 141"><defs><style>.cls-1{font-family:ArialRoundedMTBold, 'Arial Rounded MT Bold';font-size:12px;}.cls-1,.cls-2{fill:#253786;}.cls-3{letter-spacing:-.02em;}</style></defs><g><path class="cls-2" d="M82.34,29.13c-5.5-1.94-11.07,4.75-12.49,9.71-3.08-1.86-5.92,.2-7.75,2.75-.2,.28-.13,.76,.13,.99,.17,.15,.36,.29,.54,.44-1.21,1.66-2.44,3.31-3.64,4.97-.02,.03-.02,.06-.04,.09-2.12-.18-4.25-.33-6.38-.35-2.99-.02-8.66-.12-10.06,3.26-.04,.09-.03,.17-.01,.25-.72,1.43-.48,3.33,.94,4.29-3.72,5.49-3,10.97,.07,15.3-.41,3.27-1.12,7.15,.32,10.25,2.27,4.86,13.34,2.72,17.17,2.39,3.55-.31,6.82-.16,10.37,.18,2.87,.27,5.42-.29,7.07-2.77,.65-.98,.62-2.49,.68-3.62,.12-2.17,.35-4.29,.66-6.44,3.75-3.78,5.28-8.42,1.03-13.04,1.31-.33,2.31-1.12,2.66-2.39,.1-.13,.15-.3,.11-.46,.07-.48,.06-1.02-.05-1.63-.34-1.79-1.57-2.93-3.21-3.65-.32-1.25-.41-2.7-1.03-3.81-.02-.03-.04-.05-.06-.08,.12,0,.24-.03,.35-.12,2.96-2.08,6.02-4.64,7.04-8.25,.86-3.04-1.48-7.23-4.43-8.27Zm-18.65,14.65c2.12,1.67,4.42,3.13,6.59,4.73-.49,.02-.95,.04-1.33,.05-.65,.02-1.3,.02-1.95,.02-.1-.08-.21-.14-.31-.22-.2-.15-.43,0-.5,.2-1.73-.05-3.46-.17-5.19-.31,1.01-1.39,1.93-2.9,2.7-4.46Zm-2.11,5.97c.55,.05,1.1,.1,1.64,.14,1.13,1.74,3.41,3.01,5.05,4.04,2.34,1.46,5.03,3.29,7.74,3.96,.34,.08,.67-.38,.36-.63-1.83-1.48-4.22-2.31-6.28-3.42-2.09-1.12-3.94-2.4-5.72-3.87,1.09,.08,2.19,.12,3.3,.13,3.07,2.59,6.42,5.31,10.07,6.8-.81,.63-1.29,1.46-1.58,2.4-2.16-1.79-4.96-2.9-7.42-4.16-3.05-1.57-6.06-3.25-8.61-5.55,.52,.06,1,.11,1.46,.15Zm-2.71-.29c2.07,2.4,4.71,4.1,7.44,5.69,3.07,1.78,6.31,3.79,9.62,5.1-.06,.31-.11,.62-.15,.94-6.78-4.49-14.28-7.84-21.2-12.12,1.49,.1,2.95,.25,4.28,.41Zm12.47,16.28c.75,.29,1.42,.68,2.07,1.14,.61,.43,1.16,1.07,1.88,1.32,.08,.03,.16,0,.23-.03,0,.29,0,.58-.02,.87-.06,.45-.11,.89-.17,1.34-.01,.08-.04,.14-.05,.22-.52-.65-1.33-1.04-2.03-1.48-.95-.59-1.88-1.2-2.72-1.93,.11-.44,.22-.87,.3-1.25,.22-1.02,.37-2.13,.34-3.22,.37,.25,.75,.49,1.12,.73,.95,.6,1.87,1.33,2.87,1.83,.13,.06,.26,.05,.37,0,0,.77,0,1.53-.02,2.29-.43-.57-1.14-.97-1.72-1.36-.71-.47-1.48-.84-2.29-1.11-.41-.14-.57,.49-.18,.64Zm-25.6-9.56c2,.14,4.13-.23,4,2.52-.05,1.08-.25,3.18,.56,4.1,1.9,2.17,4.06,1.17,4.71-1.11,.12-.06,.17-.23,.08-.36,.01-.06,.03-.11,.04-.17,.65-.26,1.3-.52,1.95-.78,.05,.6,.09,1.19,.12,1.79,.06,.93,.19,1.81,.43,2.71,.49,1.85,1.75,3.16,3.47,3.77,1.59,.56,2.82-.46,3.73-1.89,.21-.05,.37-.29,.29-.49,.8-1.43,1.32-3.1,1.59-4.03,.16-.55,.95-4.09,2.17-2.31,1.66,2.41,.4,5.64-.12,8.17-.06,.29-.11,.61-.16,.94,0,.03-.01,.06-.01,.1-.19,1.47-.19,3.23,.64,4.34,.46,.61,.92,1.08,1.37,1.43-2.42,1.12-4.8,1.93-6.63,2.32-5.99,1.28-12.71-1.04-17.14-5.06-.57-.52-1.06-1.06-1.49-1.62,.28-4.77,.79-9.46,.38-14.36Zm7.78,4.92c-.56,1.38-2.12-.09-2.26-1.35,0-.04,0-.07,0-.11,.73,.47,1.48,1.01,2.26,1.45Zm-2.23-2.12c.07-.45,.22-.87,.3-1.32,.35,.32,.72,.62,1.1,.91,.42,.32,.86,.67,1.32,1-.11,.23-.19,.49-.26,.75-.78-.47-1.63-.88-2.37-1.32-.03-.01-.05-.02-.08-.03Zm10.32,5.3c-.95-.51-1.88-1.06-2.86-1.51-.04-.61-.04-1.23-.08-1.85,.6,.38,1.21,.75,1.83,1.1,1.06,.61,2.23,1.5,3.44,1.74,.31,.06,.54-.29,.31-.54-.85-.9-2.26-1.33-3.36-1.87-.78-.39-1.54-.81-2.29-1.25-.03-.24-.07-.47-.12-.7-.07-.28-.15-.53-.25-.74,2.23,1.33,4.55,2.55,6.92,3.49-.32,.99-.75,2.24-1.3,3.24-.74-.39-1.53-.73-2.23-1.11Zm1.72,1.91c-.92,1.21-2.12,1.57-3.67-.53-.56-.76-.77-1.61-.86-2.48,.71,.52,1.44,1,2.18,1.47,.73,.47,1.53,1.08,2.35,1.55Zm6.96,5.58c-.14-.33-.21-.69-.24-1.06,1.1,.93,2.38,1.68,3.71,2.1-.84,.26-1.99-.07-3.47-1.04Zm-.23-2.12c.05-.56,.16-1.13,.29-1.69,.6,.53,1.24,1.02,1.9,1.47,.85,.58,1.8,1.41,2.8,1.69,.04,.01,.07,0,.11,0-.16,.58-.41,1.01-.72,1.31-.03-.06-.06-.11-.13-.15-1.48-.9-2.96-1.55-4.25-2.63Zm1.05-7.84c-.09-.77-.28-1.51-.62-2.18,1.73,.93,3.46,1.85,5.17,2.76,0,.09-.02,.19-.02,.28-.05,.63-.08,1.27-.09,1.9-1.25-1.15-2.93-1.9-4.44-2.76Zm-17.72-12.8c4.33,3.32,9.04,6.17,13.85,8.84-.41,.38-.77,.96-1.05,1.53-4.68-4.04-10.41-7.1-15.71-10.36,.95-.06,1.93-.05,2.91-.02Zm-3.74,.08c5.2,3.88,10.57,7.92,16.16,11.17-.1,.27-.19,.49-.24,.65-.02,.07-.05,.14-.08,.22-3.09-1.81-6.34-3.38-9.43-5.2-3.25-1.92-6.21-4.26-9.36-6.28,.92-.28,1.91-.45,2.95-.55Zm-3.5,.73c1.65,2.29,4.48,4.08,6.95,5.63-2.86-1.66-5.76-3.25-8.7-4.75,.53-.36,1.12-.65,1.75-.88Zm-2.29,1.27s.07-.04,.1-.07c3.91,2.27,7.71,4.73,11.63,6.97-.06,.03-.12,.05-.18,.09-.42,.24-.74,.52-.99,.84-.3-.17-.61-.34-.9-.52-.65-.4-1.27-.83-1.87-1.3-.01-.93-.78-1.74-1.53-2.18-.35-.21-1.3-.24-2.37-.3,0-.11-.05-.23-.17-.27-1.46-.55-2.98-1.25-4.14-2.34,.09-.28,.21-.58,.41-.93Zm.06,17.01c-1.56-3.76-.73-7.99,.78-12.05,.05,.01,.1,.02,.15,.03-.41,4-.57,8.01-.94,12.02Zm.74-13.92c-.85-.3-1.41-.81-1.31-1.71,.41,.46,.96,.83,1.45,1.17,.45,.31,.96,.63,1.5,.87-.4-.05-.79-.1-1.16-.19-.12-.13-.32-.2-.48-.14Zm32.57,23.1c-.15,6.12-12.58,3.88-17.21,4.27-2.68,.23-5.36,.4-8.05,.37-4.14-.05-6.67-.86-6.77-5.57-.02-1.19,0-2.36,.05-3.53,4.48,4.68,11.82,7.45,18.53,6.36,3.9-.64,9.61-3.02,13.89-6.35-.23,1.5-.41,2.99-.45,4.47Zm.92-7.21c-.48,.44-.99,.87-1.53,1.29,.58-2.45,.14-5.67,.27-8.41,.4-.04,.61-.6,.2-.88-.04-.03-.09-.06-.13-.08,.18-1.64,.65-3.02,1.83-3.83,.82,3.91,.08,7.92-.64,11.92Zm1.54-13.67c-.23-.02-.48,.05-.67,.19-.03,0-.05,.01-.08,.02-.12-.07-.26-.11-.42-.1-.02-.13-.08-.27-.2-.35-2.99-2.11-6.14-3.97-9.17-6.02,.84-.02,1.69-.04,2.53-.04,3.27,1.48,5.81,4.21,8.95,5.82-.28,.2-.59,.36-.94,.49Zm1.27,4.44c1.1,2.29,.73,4.49-.51,6.5,.33-2.16,.58-4.34,.51-6.5Zm.89-7.33c-.52-.3-1.05-.59-1.55-.9-1.38-.83-2.77-1.62-4.21-2.32-.48-.23-.9,.46-.42,.72,1.25,.68,2.46,1.43,3.65,2.21,.76,.5,1.52,1.07,2.31,1.56-.05,.11-.12,.22-.19,.33-1.54-1.09-3.19-2.08-4.74-3.13-1.06-.72-2.16-1.35-3.32-1.87,.5,.01,.99,0,1.49,.03,1.37,.07,2.7,.32,4,.75,1.97,.55,2.86,1.58,2.99,2.62Zm3.08-15.88c-.81,2.9-4,4.96-6.17,6.79-.37,.32-.27,.8,.02,1.11-.38,.05-.73,.41-.62,.88,.16,.71,.49,1.4,.72,2.09,.08,.23,.16,.46,.24,.69-2.35-.67-5.18-.74-7.47-.69-1.85-2.5-4.8-4.27-7.25-6.23,.02-.04,.04-.09,.06-.13,.12-.28-.08-.47-.32-.5,.49-.59,1.02-1.12,1.7-1.53,1.18-.69,2.48-.1,3.69,.09,.17,.03,.32,0,.45-.07,.1,0,.2-.04,.26-.16,1.92-3.77,5.19-8.36,9.54-9.39,3.63-.86,5.95,4.19,5.15,7.04Z"/><path class="cls-2" d="M81.51,32.76c-1.66-.76-4.58-.41-4.8,1.85-.02,.26,.1,.43,.27,.52-.34,1.06-.24,2.23,.55,3.18,1.65,1.99,4.41,.69,5.65-1.07,1.2-1.7,0-3.72-1.67-4.48Zm.32,3.49c-.5,.99-2.13,1.99-3.09,1.06-.86-.83-.53-2.16,.05-3.11,.07-.04,.15-.09,.23-.12,.52-.19,1.06-.1,1.56,.06,.87,.28,1.72,1.17,1.24,2.11Z"/></g><text class="cls-1" transform="translate(39.7 115.54)"><tspan x="0" y="0">Pintu</tspan><tspan class="cls-3" x="30" y="0">r</tspan><tspan x="34.96" y="0">as</tspan></text></svg>