<?xml version="1.0" encoding="UTF-8"?><svg id="Capa_1" xmlns="http://www.w3.org/2000/svg" viewBox="0 0 128 141"><defs><style>.cls-1{font-family:ArialRoundedMTBold, 'Arial Rounded MT Bold';font-size:12px;}.cls-1,.cls-2,.cls-3{fill:#253786;}.cls-3{fill-rule:evenodd;}</style></defs><g><polygon class="cls-3" points="66.19 33.86 75.14 33.86 75.14 60.17 66.19 60.17 66.19 49.63 59.27 49.63 59.27 44.41 66.19 44.41 66.19 33.86"/><polygon class="cls-3" points="43.36 71.63 43.36 79.03 44.72 79.03 44.72 82.53 36.03 82.53 36.03 79.03 37.38 79.03 37.38 71.63 36.03 71.63 36.03 68.13 44.72 68.13 44.72 71.63 43.36 71.63"/><polygon class="cls-3" points="58.1 71.63 58.1 83.32 57.48 83.32 57.48 71.63 56.75 71.63 56.75 82.47 50.76 82.47 50.76 71.63 46.47 71.63 46.47 68.13 60.7 68.13 60.7 71.63 58.11 71.63 58.1 71.63"/><rect class="cls-2" x="62.96" y="68.41" width="5.59" height="14.06"/><polygon class="cls-3" points="72.44 77.9 77.24 77.9 77.24 82.53 69.33 82.53 69.33 79.54 72.44 79.54 72.44 77.9 72.44 77.9"/><polygon class="cls-3" points="80.29 77.75 74.7 68.47 80.4 68.47 83.28 73.95 86.66 68.7 91.97 68.7 86.05 78.48 86.05 82.52 80.29 82.52 80.29 77.75 80.29 77.75"/><rect class="cls-2" x="48.72" y="33.86" width="8.95" height="26.31"/></g><text class="cls-1" transform="translate(33.31 115.54)"><tspan x="0" y="0">Línea Hitly</tspan></text></svg>