<?xml version="1.0" encoding="UTF-8"?><svg id="Capa_1" xmlns="http://www.w3.org/2000/svg" viewBox="0 0 128 141"><defs><style>.cls-1{font-family:ArialRoundedMTBold, 'Arial Rounded MT Bold';font-size:12px;}.cls-1,.cls-2,.cls-3{fill:#253786;}.cls-4{letter-spacing:.01em;}.cls-5{letter-spacing:-.02em;}.cls-3{fill-rule:evenodd;}</style></defs><g><path class="cls-3" d="M18.24,54.3c3.12,0,5.66,2.53,5.66,5.66,0,.42-.05,.84-.14,1.23h-1.96c.14-.39,.2-.8,.2-1.23,0-2.08-1.69-3.77-3.77-3.77-1.67,0-3.09,1.09-3.59,2.6h-1.95c.54-2.56,2.81-4.49,5.53-4.49m.3-1.13c5.96,0,10.82,4.7,11.09,10.59h-4l-7.6-.04c-1.5-.08-2.76-1.03-3.29-2.36h-1.98c.62,2.45,2.84,4.25,5.48,4.25,3.77,0,7.55,0,11.32,0-.66,5.5-5.34,9.76-11.02,9.76-6.13,0-11.1-4.97-11.1-11.1s4.97-11.1,11.1-11.1h0Zm4.98,13.66c.18,.55,.28,1.14,.28,1.76,0,3.12-2.53,5.66-5.66,5.66-2.85,0-5.2-2.1-5.59-4.84h1.91c.37,1.69,1.88,2.95,3.68,2.95,2.08,0,3.77-1.69,3.77-3.77,0-.63-.16-1.23-.43-1.76h2.04Z"/><g><path class="cls-2" d="M41.54,59.61l-1.78,.7c-.21-.76-.48-1.32-.82-1.69-.34-.36-.8-.54-1.39-.54-.55,0-.97,.18-1.26,.55-.3,.37-.45,.79-.45,1.27,0,.53,.17,.95,.5,1.26,.33,.31,1,.69,2,1.12,.85,.37,1.51,.73,1.97,1.06s.83,.79,1.12,1.35c.29,.56,.43,1.22,.43,1.96,0,1.21-.37,2.23-1.12,3.08-.75,.85-1.79,1.27-3.13,1.27-2.32,0-3.75-1.34-4.31-4.02l1.86-.6c.32,1.77,1.17,2.65,2.54,2.65,.67,0,1.18-.2,1.52-.59,.35-.4,.52-.88,.52-1.47,0-.43-.12-.82-.36-1.19-.24-.36-.83-.75-1.78-1.17-1.01-.43-1.73-.8-2.18-1.1-.44-.3-.82-.75-1.14-1.34s-.47-1.26-.47-2.01c0-1.14,.35-2.1,1.04-2.88,.7-.78,1.62-1.17,2.77-1.17,2.04,0,3.34,1.16,3.91,3.47Z"/><path class="cls-2" d="M43.43,56.4h7.67v2.02h-2.81v12.34h-2.08v-12.34h-2.79v-2.02Z"/><path class="cls-2" d="M52.91,56.4h2.03v8.91c0,1,.05,1.73,.14,2.2,.09,.47,.3,.85,.63,1.13,.33,.28,.77,.42,1.33,.42,.53,0,.94-.11,1.23-.34,.29-.23,.5-.55,.63-.97,.12-.42,.18-1.24,.18-2.48v-8.87h1.87v8.75c0,1.4-.09,2.48-.26,3.24-.18,.76-.58,1.39-1.21,1.88-.64,.5-1.49,.75-2.55,.75-.83,0-1.55-.16-2.16-.47-.61-.31-1.07-.82-1.38-1.51-.31-.7-.47-1.94-.47-3.73v-8.91Z"/><path class="cls-2" d="M62.76,56.4h7.67v2.02h-2.81v12.34h-2.08v-12.34h-2.79v-2.02Z"/><path class="cls-2" d="M70.82,56.4h7.67v2.02h-2.81v12.34h-2.08v-12.34h-2.79v-2.02Z"/><path class="cls-2" d="M84.66,63.39h4.19v7.47h-1.11l-.28-1.82c-.64,1.32-1.64,1.98-3.02,1.98s-2.5-.65-3.29-1.95c-.79-1.3-1.18-3.07-1.18-5.3,0-2.35,.39-4.21,1.17-5.58,.78-1.37,1.98-2.06,3.6-2.06,2.25,0,3.6,1.46,4.04,4.38l-1.88,.54c-.22-1.23-.52-2.03-.89-2.4-.37-.36-.81-.55-1.32-.55-1.68,0-2.52,1.82-2.52,5.46s.86,5.49,2.58,5.49c1.43,0,2.14-1.25,2.14-3.76h-2.24v-1.9Z"/><path class="cls-2" d="M94.68,56.4h2.33l3.37,14.36h-2.1l-.79-3.6h-3.68l-.78,3.6h-1.98l3.64-14.36Zm2.4,8.89l-1.44-6.57-1.43,6.57h2.87Z"/><path class="cls-2" d="M102.63,56.4h3.78c1.37,0,2.38,.35,3.03,1.06,.65,.71,.98,1.73,.98,3.05,0,1.77-.64,3.02-1.92,3.76l2.38,6.49h-2.25l-1.95-6h-1.96v6h-2.08v-14.36Zm2.08,1.84v4.68h1.59c.71,0,1.23-.22,1.57-.67,.33-.45,.5-1.03,.5-1.76,0-1.5-.68-2.25-2.05-2.25h-1.61Z"/><path class="cls-2" d="M112.32,56.4h7.67v2.02h-2.81v12.34h-2.08v-12.34h-2.79v-2.02Z"/></g></g><text class="cls-1" transform="translate(20.51 115.54)"><tspan x="0" y="0">Línea Stutt</tspan><tspan class="cls-5" x="63.01" y="0">g</tspan><tspan x="70.21" y="0">a</tspan><tspan class="cls-4" x="77.34" y="0">r</tspan><tspan x="82.74" y="0">t</tspan></text></svg>