<?xml version="1.0" encoding="UTF-8"?><svg id="Capa_1" xmlns="http://www.w3.org/2000/svg" viewBox="0 0 312.69 76.72"><defs><style>.cls-1{isolation:isolate;}.cls-2{fill:#d80f1e;fill-rule:evenodd;}.cls-3{fill:#1d1d1b;}.cls-4{fill:#010101;}.cls-5{fill:#feeb1a;}</style></defs><rect class="cls-5" x="167.03" width="145.66" height="14.32"/><g class="cls-1" transform="translate(639.62 373.14) scale(1.52 1)"><g class="cls-1"><path class="cls-3" d="M167.21,3.35h4.14c.93,0,1.64,.05,2.13,.14,.66,.13,1.22,.35,1.69,.68,.47,.32,.83,.72,1.07,1.19,.24,.47,.37,1.05,.37,1.74,0,.61-.11,1.13-.34,1.57-.28,.54-.68,.97-1.2,1.3-.39,.25-.92,.45-1.59,.59-.5,.1-1.17,.16-2,.16h-4.26V3.35Zm2.26,1.25v4.88h1.69c.63,0,1.09-.02,1.37-.07,.37-.06,.67-.16,.91-.31,.24-.14,.44-.38,.59-.71,.15-.33,.23-.78,.23-1.35s-.08-1.01-.23-1.31c-.15-.31-.37-.54-.64-.71s-.62-.29-1.05-.35c-.32-.05-.94-.07-1.86-.07h-1.02Z"/><path class="cls-3" d="M178.53,10.72V3.35h8.31v1.25h-6.05v1.63h5.63v1.24h-5.63v2.01h6.26v1.24h-8.52Z"/><path class="cls-3" d="M188.4,8.32l2.2-.14c.13,.49,.4,.84,.81,1.07,.4,.23,.95,.34,1.64,.34,.73,0,1.28-.1,1.65-.3,.37-.2,.55-.44,.55-.71,0-.17-.08-.32-.23-.45-.16-.12-.43-.23-.81-.32-.26-.06-.87-.17-1.81-.32-1.21-.2-2.06-.44-2.55-.73-.69-.41-1.03-.9-1.03-1.48,0-.38,.16-.73,.49-1.05s.79-.58,1.4-.75c.61-.17,1.34-.26,2.21-.26,1.41,0,2.47,.2,3.18,.61,.71,.4,1.08,.95,1.12,1.62l-2.26,.07c-.1-.38-.3-.65-.62-.82-.32-.17-.8-.25-1.43-.25s-1.17,.09-1.54,.27c-.24,.11-.36,.27-.36,.46,0,.17,.11,.32,.34,.45,.29,.16,.98,.32,2.08,.49,1.1,.17,1.91,.35,2.44,.53,.53,.18,.94,.43,1.24,.75s.45,.71,.45,1.17c0,.42-.18,.82-.54,1.19-.36,.37-.86,.64-1.51,.82-.65,.18-1.47,.27-2.44,.27-1.42,0-2.5-.22-3.26-.65-.76-.43-1.21-1.06-1.36-1.88Z"/><path class="cls-3" d="M199.35,10.72V3.35h2.26v7.37h-2.26Z"/><path class="cls-3" d="M208.98,8.01v-1.24h4.88v2.94c-.47,.3-1.16,.57-2.06,.8-.9,.23-1.81,.34-2.73,.34-1.17,0-2.19-.16-3.07-.49-.87-.32-1.53-.79-1.97-1.39-.44-.6-.66-1.26-.66-1.96,0-.77,.24-1.45,.73-2.05,.49-.6,1.21-1.05,2.15-1.37,.72-.25,1.61-.37,2.68-.37,1.39,0,2.48,.19,3.26,.58,.78,.38,1.29,.91,1.51,1.59l-2.25,.28c-.16-.36-.46-.65-.89-.86-.44-.21-.98-.31-1.63-.31-.99,0-1.78,.21-2.36,.62s-.88,1.02-.88,1.84c0,.88,.3,1.53,.89,1.97s1.37,.66,2.32,.66c.47,0,.95-.06,1.43-.18,.48-.12,.89-.27,1.23-.45v-.94h-2.59Z"/><path class="cls-3" d="M215.96,10.72V3.35h2.2l4.59,4.92V3.35h2.1v7.37h-2.27l-4.52-4.81v4.81h-2.1Z"/><path class="cls-3" d="M236.81,8.01v-1.24h4.88v2.94c-.47,.3-1.16,.57-2.06,.8-.9,.23-1.81,.34-2.73,.34-1.17,0-2.19-.16-3.07-.49-.87-.32-1.53-.79-1.97-1.39-.44-.6-.66-1.26-.66-1.96,0-.77,.24-1.45,.73-2.05,.49-.6,1.21-1.05,2.15-1.37,.72-.25,1.61-.37,2.68-.37,1.39,0,2.48,.19,3.26,.58,.78,.38,1.29,.91,1.51,1.59l-2.25,.28c-.16-.36-.46-.65-.89-.86-.44-.21-.98-.31-1.63-.31-.99,0-1.78,.21-2.36,.62s-.88,1.02-.88,1.84c0,.88,.3,1.53,.89,1.97s1.37,.66,2.32,.66c.47,0,.95-.06,1.43-.18,.48-.12,.89-.27,1.23-.45v-.94h-2.59Z"/><path class="cls-3" d="M243.78,10.72V3.35h8.31v1.25h-6.05v1.63h5.63v1.24h-5.63v2.01h6.26v1.24h-8.52Z"/><path class="cls-3" d="M254.23,10.72V3.35h4.76c1.2,0,2.07,.07,2.61,.2,.54,.13,.98,.37,1.3,.71,.33,.34,.49,.73,.49,1.16,0,.55-.25,1.01-.74,1.37-.49,.36-1.23,.59-2.22,.68,.49,.19,.89,.39,1.21,.62,.32,.22,.75,.62,1.29,1.2l1.37,1.44h-2.71l-1.64-1.6c-.58-.57-.98-.94-1.19-1.08-.21-.15-.44-.25-.68-.31-.24-.06-.62-.08-1.14-.08h-.46v3.08h-2.26Zm2.26-4.25h1.67c1.09,0,1.76-.03,2.03-.09s.48-.16,.63-.31c.15-.15,.23-.33,.23-.55,0-.25-.1-.45-.3-.6-.2-.15-.49-.25-.85-.29-.18-.02-.73-.03-1.65-.03h-1.77v1.87Z"/><path class="cls-3" d="M265.49,10.72V3.35h3.39l2.03,5.03,2.01-5.03h3.39v7.37h-2.1V4.92l-2.23,5.8h-2.18l-2.22-5.8v5.8h-2.1Z"/><path class="cls-3" d="M288.67,10.72h-2.46l-.98-1.67h-4.48l-.93,1.67h-2.4l4.37-7.37h2.39l4.49,7.37Zm-4.17-2.92l-1.54-2.74-1.51,2.74h3.06Z"/><path class="cls-3" d="M289.9,10.72V3.35h2.2l4.59,4.92V3.35h2.1v7.37h-2.27l-4.52-4.81v4.81h-2.1Z"/><path class="cls-3" d="M304.12,10.72v-3.1l-4.11-4.27h2.65l2.64,2.92,2.58-2.92h2.61l-4.12,4.28v3.09h-2.26Z"/></g></g><path class="cls-2" d="M29.87,18.46c8.63,0,15.63,6.99,15.63,15.63,0,1.17-.13,2.32-.37,3.41h-5.41c.37-1.07,.57-2.21,.57-3.41,0-5.76-4.66-10.42-10.42-10.42-4.62,0-8.55,3.01-9.91,7.18h-5.38c1.49-7.08,7.76-12.4,15.3-12.4m.82-3.12c16.47,0,29.91,12.98,30.66,29.27h-11.06l-21-.12c-4.13-.22-7.62-2.86-9.1-6.53h-5.47c1.73,6.76,7.85,11.74,15.14,11.74,10.42,0,20.86,.01,31.29,.03-1.83,15.21-14.77,26.99-30.46,26.99C13.74,76.72,0,62.99,0,46.04S13.74,15.36,30.68,15.36h.01Zm13.76,37.76c.5,1.53,.77,3.15,.77,4.85,0,8.63-6.99,15.63-15.63,15.63-7.87,0-14.37-5.81-15.46-13.36h5.29c1.03,4.67,5.19,8.16,10.17,8.16,5.76,0,10.42-4.66,10.42-10.42,0-1.75-.44-3.4-1.2-4.85h5.64Z"/><g><path class="cls-4" d="M94.26,33.13l-4.91,1.95c-.58-2.1-1.33-3.66-2.28-4.66-.94-1-2.22-1.5-3.85-1.5-1.51,0-2.67,.51-3.5,1.53-.82,1.02-1.23,2.19-1.23,3.51,0,1.46,.46,2.62,1.39,3.48,.92,.86,2.77,1.9,5.53,3.1,2.36,1.03,4.17,2.01,5.44,2.94s2.3,2.18,3.09,3.74c.79,1.56,1.18,3.37,1.18,5.42,0,3.33-1.03,6.17-3.09,8.52-2.06,2.35-4.95,3.52-8.66,3.52-6.41,0-10.37-3.7-11.9-11.11l5.14-1.66c.9,4.88,3.24,7.33,7.02,7.33,1.85,0,3.25-.55,4.21-1.64,.96-1.09,1.44-2.45,1.44-4.05,0-1.18-.33-2.28-.99-3.29-.66-1.01-2.31-2.08-4.93-3.23-2.78-1.2-4.78-2.22-6.01-3.05-1.23-.83-2.28-2.06-3.14-3.69s-1.3-3.48-1.3-5.55c0-3.16,.96-5.81,2.88-7.97,1.92-2.15,4.48-3.23,7.67-3.23,5.64,0,9.24,3.2,10.8,9.59Z"/><path class="cls-4" d="M99.49,24.26h21.2v5.58h-7.75V63.95h-5.75V29.84h-7.7v-5.58Z"/><path class="cls-4" d="M125.69,24.26h5.62v24.62c0,2.75,.13,4.78,.38,6.09,.25,1.31,.83,2.35,1.74,3.11,.91,.77,2.13,1.15,3.67,1.15,1.46,0,2.59-.32,3.41-.95,.81-.63,1.39-1.52,1.73-2.67,.34-1.15,.51-3.43,.51-6.85V24.26h5.16v24.19c0,3.88-.24,6.86-.72,8.95-.48,2.09-1.6,3.83-3.36,5.2-1.76,1.38-4.11,2.06-7.06,2.06-2.29,0-4.28-.43-5.96-1.29-1.69-.86-2.96-2.26-3.83-4.19-.86-1.93-1.3-5.36-1.3-10.31V24.26Z"/><path class="cls-4" d="M152.91,24.26h21.2v5.58h-7.75V63.95h-5.75V29.84h-7.7v-5.58Z"/><path class="cls-4" d="M175.19,24.26h21.2v5.58h-7.75V63.95h-5.75V29.84h-7.7v-5.58Z"/><path class="cls-4" d="M213.44,43.59h11.59v20.64h-3.07l-.77-5.03c-1.76,3.64-4.54,5.47-8.35,5.47s-6.9-1.8-9.08-5.39c-2.18-3.59-3.27-8.47-3.27-14.64,0-6.49,1.08-11.63,3.24-15.42,2.16-3.79,5.47-5.68,9.94-5.68,6.23,0,9.96,4.03,11.17,12.09l-5.19,1.48c-.61-3.41-1.43-5.62-2.46-6.63-1.03-1.01-2.25-1.51-3.65-1.51-4.65,0-6.98,5.03-6.98,15.09s2.38,15.18,7.14,15.18c3.95,0,5.93-3.46,5.93-10.38h-6.2v-5.26Z"/><path class="cls-4" d="M241.15,24.26h6.44l9.32,39.68h-5.82l-2.18-9.94h-10.18l-2.16,9.94h-5.48l10.05-39.68Zm6.63,24.57l-3.98-18.17-3.94,18.17h7.92Z"/><path class="cls-4" d="M263.12,24.26h10.45c3.78,0,6.57,.98,8.36,2.94,1.8,1.96,2.69,4.77,2.69,8.43,0,4.88-1.77,8.34-5.31,10.38l6.58,17.94h-6.23l-5.39-16.57h-5.41v16.57h-5.75V24.26Zm5.75,5.09v12.94h4.4c1.97,0,3.41-.62,4.34-1.86,.92-1.24,1.38-2.86,1.38-4.86,0-4.15-1.89-6.22-5.67-6.22h-4.45Z"/><path class="cls-4" d="M289.88,24.26h21.2v5.58h-7.75V63.95h-5.75V29.84h-7.7v-5.58Z"/></g></svg>