<?xml version="1.0" encoding="UTF-8"?><svg id="Capa_1" xmlns="http://www.w3.org/2000/svg" viewBox="0 0 290.46 147.54"><defs><style>.cls-1{fill:#d80f1e;fill-rule:evenodd;}</style></defs><path class="cls-1" d="M194.61,129.63c1.46-.99,5.72-5.18-3.78-8.99-9.5-3.83-20.7-5.41-20.11-16.26,.6-11.08,19.05-9.8,23.89-9.12,5.13,.74,11.21,4.93,12.92,8s0,6.65-3.53,6.65-5.72-2.84-5.24-4.06c.49-1.24,.12-5.66-3.78-6.9s-10.36-1.1-13.54,2.09c-3.16,3.21-3.3,7.52,2.68,11.08,5.97,3.58,15.95,5.9,18.99,10.21s1.16,8.39-2.91,10.86c-3.88,2.35-15.11,3.21-21.45,0s-10.12-9.73-6.94-9.98c3.16-.25,6.22-.25,6.83,1.47,1.54,4.37,11.23,8.11,15.96,4.93m46.85-31.59h8.93l-1.63,35.71h-7.3v-9.93h-18.66l-.46,9.93h-7.3v-35.71h8.93l-.97,21.25h18.45v-21.25h0Zm-96.49-3.4c10.73,0,19.42,8.67,19.42,19.36s-8.7,19.36-19.42,19.36-19.42-8.67-19.42-19.36,8.7-19.36,19.42-19.36Zm0,3.9c6.49,0,11.76,6.93,11.76,15.46s-5.27,15.46-11.76,15.46-11.76-6.93-11.76-15.46,5.27-15.46,11.76-15.46Zm-44.26-3.9c10.73,0,19.42,8.67,19.42,19.36s-8.7,19.36-19.42,19.36-19.42-8.67-19.42-19.36,8.7-19.36,19.42-19.36Zm0,3.9c6.49,0,11.76,6.93,11.76,15.46s-5.27,15.46-11.76,15.46-11.76-6.93-11.76-15.46,5.27-15.46,11.76-15.46Zm185.65-13.23c5.3,0,5.58,8.17,.34,8.24H66.55l-19.41,54L0,0H69.09c7.15-.13,8.09,11.24,0,11.37H15.92L48.05,116.86l12.8-31.56h225.49Z"/></svg>